%TF.GenerationSoftware,KiCad,Pcbnew,5.1.9-1.fc33*%
%TF.CreationDate,2021-02-28T14:37:16-05:00*%
%TF.ProjectId,3m_whisper,336d5f77-6869-4737-9065-722e6b696361,rev?*%
%TF.SameCoordinates,Original*%
%TF.FileFunction,Paste,Bot*%
%TF.FilePolarity,Positive*%
%FSLAX46Y46*%
G04 Gerber Fmt 4.6, Leading zero omitted, Abs format (unit mm)*
G04 Created by KiCad (PCBNEW 5.1.9-1.fc33) date 2021-02-28 14:37:16*
%MOMM*%
%LPD*%
G01*
G04 APERTURE LIST*
%ADD10R,1.200000X1.200000*%
G04 APERTURE END LIST*
D10*
%TO.C,D1*%
X118663500Y-95186500D03*
X121813500Y-95186500D03*
%TD*%
%TO.C,D2*%
X140863500Y-95186500D03*
X137713500Y-95186500D03*
%TD*%
%TO.C,D3*%
X156763500Y-95186500D03*
X159913500Y-95186500D03*
%TD*%
%TO.C,D4*%
X178963500Y-95186500D03*
X175813500Y-95186500D03*
%TD*%
%TO.C,D5*%
X194863500Y-95186500D03*
X198013500Y-95186500D03*
%TD*%
%TO.C,D6*%
X217063500Y-95186500D03*
X213913500Y-95186500D03*
%TD*%
%TO.C,D7*%
X232963500Y-95186500D03*
X236113500Y-95186500D03*
%TD*%
%TO.C,D8*%
X255163500Y-95186500D03*
X252013500Y-95186500D03*
%TD*%
%TO.C,D9*%
X271063500Y-95186500D03*
X274213500Y-95186500D03*
%TD*%
%TO.C,D10*%
X293263500Y-95186500D03*
X290113500Y-95186500D03*
%TD*%
%TO.C,D11*%
X309163500Y-95186500D03*
X312313500Y-95186500D03*
%TD*%
%TO.C,D12*%
X331363500Y-95186500D03*
X328213500Y-95186500D03*
%TD*%
%TO.C,D13*%
X347263500Y-95186500D03*
X350413500Y-95186500D03*
%TD*%
%TO.C,D14*%
X117679500Y-114236500D03*
X114529500Y-114236500D03*
%TD*%
%TO.C,D15*%
X131649500Y-114236500D03*
X128499500Y-114236500D03*
%TD*%
%TO.C,D16*%
X147549500Y-114236500D03*
X150699500Y-114236500D03*
%TD*%
%TO.C,D17*%
X169749500Y-114236500D03*
X166599500Y-114236500D03*
%TD*%
%TO.C,D18*%
X185649500Y-114236500D03*
X188799500Y-114236500D03*
%TD*%
%TO.C,D19*%
X207849500Y-114236500D03*
X204699500Y-114236500D03*
%TD*%
%TO.C,D20*%
X223749500Y-114236500D03*
X226899500Y-114236500D03*
%TD*%
%TO.C,D21*%
X245949500Y-114236500D03*
X242799500Y-114236500D03*
%TD*%
%TO.C,D22*%
X261849500Y-114236500D03*
X264999500Y-114236500D03*
%TD*%
%TO.C,D23*%
X284049500Y-114236500D03*
X280899500Y-114236500D03*
%TD*%
%TO.C,D24*%
X299949500Y-114236500D03*
X303099500Y-114236500D03*
%TD*%
%TO.C,D25*%
X322149500Y-114236500D03*
X318999500Y-114236500D03*
%TD*%
%TO.C,D26*%
X338049500Y-114236500D03*
X341199500Y-114236500D03*
%TD*%
%TO.C,D27*%
X117335500Y-133286500D03*
X114185500Y-133286500D03*
%TD*%
%TO.C,D28*%
X133235500Y-133286500D03*
X136385500Y-133286500D03*
%TD*%
%TO.C,D29*%
X155435500Y-133286500D03*
X152285500Y-133286500D03*
%TD*%
%TO.C,D30*%
X171335500Y-133286500D03*
X174485500Y-133286500D03*
%TD*%
%TO.C,D31*%
X190385500Y-133286500D03*
X193535500Y-133286500D03*
%TD*%
%TO.C,D32*%
X212585500Y-133286500D03*
X209435500Y-133286500D03*
%TD*%
%TO.C,D33*%
X231635500Y-133286500D03*
X228485500Y-133286500D03*
%TD*%
%TO.C,D34*%
X247535500Y-133286500D03*
X250685500Y-133286500D03*
%TD*%
%TO.C,D35*%
X269735500Y-133286500D03*
X266585500Y-133286500D03*
%TD*%
%TO.C,D36*%
X285635500Y-133286500D03*
X288785500Y-133286500D03*
%TD*%
%TO.C,D37*%
X307835500Y-133286500D03*
X304685500Y-133286500D03*
%TD*%
%TO.C,D38*%
X323735500Y-133286500D03*
X326885500Y-133286500D03*
%TD*%
%TO.C,D39*%
X345935500Y-133286500D03*
X342785500Y-133286500D03*
%TD*%
%TO.C,D40*%
X123583500Y-152336500D03*
X126733500Y-152336500D03*
%TD*%
%TO.C,D41*%
X145783500Y-152336500D03*
X142633500Y-152336500D03*
%TD*%
%TO.C,D42*%
X161683500Y-152336500D03*
X164833500Y-152336500D03*
%TD*%
%TO.C,D43*%
X183883500Y-152336500D03*
X180733500Y-152336500D03*
%TD*%
%TO.C,D44*%
X199783500Y-152336500D03*
X202933500Y-152336500D03*
%TD*%
%TO.C,D45*%
X218833500Y-152336500D03*
X221983500Y-152336500D03*
%TD*%
%TO.C,D46*%
X211010500Y-158635500D03*
X211010500Y-161785500D03*
%TD*%
%TO.C,D47*%
X240869500Y-152336500D03*
X237719500Y-152336500D03*
%TD*%
%TO.C,D48*%
X257097500Y-152336500D03*
X260247500Y-152336500D03*
%TD*%
%TO.C,D49*%
X279133500Y-152336500D03*
X275983500Y-152336500D03*
%TD*%
%TO.C,D50*%
X295033500Y-152336500D03*
X298183500Y-152336500D03*
%TD*%
%TO.C,D51*%
X317233500Y-152336500D03*
X314083500Y-152336500D03*
%TD*%
%TO.C,D52*%
X333133500Y-152336500D03*
X336283500Y-152336500D03*
%TD*%
%TO.C,D53*%
X121907500Y-71310500D03*
X118757500Y-71310500D03*
%TD*%
%TO.C,D54*%
X137807500Y-71310500D03*
X140957500Y-71310500D03*
%TD*%
%TO.C,D55*%
X160007500Y-71310500D03*
X156857500Y-71310500D03*
%TD*%
%TO.C,D56*%
X293517500Y-71310500D03*
X290367500Y-71310500D03*
%TD*%
%TO.C,D57*%
X309417500Y-71310500D03*
X312567500Y-71310500D03*
%TD*%
%TO.C,D58*%
X331617500Y-71310500D03*
X328467500Y-71310500D03*
%TD*%
%TO.C,D59*%
X347517500Y-71310500D03*
X350667500Y-71310500D03*
%TD*%
%TO.C,D60*%
X360249500Y-114236500D03*
X357099500Y-114236500D03*
%TD*%
M02*
