M48
; DRILL file {KiCad 5.1.9-1.fc33} date Sun Feb 28 14:37:40 2021
; FORMAT={-:-/ absolute / inch / decimal}
; #@! TF.CreationDate,2021-02-28T14:37:40-05:00
; #@! TF.GenerationSoftware,Kicad,Pcbnew,5.1.9-1.fc33
; #@! TF.FileFunction,Plated,1,2,PTH
FMAT,2
INCH
T1C0.0276
T2C0.0433
T3C0.0866
T4C0.1535
T5C0.1850
T6C0.2717
%
G90
G05
T1
X4.404Y-5.2475
X4.4175Y-4.4975
X4.5803Y-3.7475
X4.584Y-2.8075
X4.711Y-5.2475
X4.7246Y-4.4975
X4.774Y-5.9975
X4.8873Y-3.7475
X4.891Y-2.8075
X4.9675Y-4.4975
X5.081Y-5.9975
X5.154Y-5.2475
X5.2746Y-4.4975
X5.3303Y-3.7475
X5.334Y-2.8075
X5.461Y-5.2475
X5.524Y-5.9975
X5.6373Y-3.7475
X5.641Y-2.8075
X5.7175Y-4.4975
X5.831Y-5.9975
X5.904Y-5.2475
X6.0246Y-4.4975
X6.0803Y-3.7475
X6.084Y-2.8075
X6.211Y-5.2475
X6.274Y-5.9975
X6.3873Y-3.7475
X6.391Y-2.8075
X6.4675Y-4.4975
X6.581Y-5.9975
X6.654Y-5.2475
X6.7746Y-4.4975
X6.8303Y-3.7475
X6.961Y-5.2475
X7.024Y-5.9975
X7.1373Y-3.7475
X7.2175Y-4.4975
X7.331Y-5.9975
X7.404Y-5.2475
X7.5246Y-4.4975
X7.5803Y-3.7475
X7.711Y-5.2475
X7.774Y-5.9975
X7.8873Y-3.7475
X7.9675Y-4.4975
X8.081Y-5.9975
X8.154Y-5.2475
X8.2746Y-4.4975
X8.3075Y-6.154
X8.3075Y-6.461
X8.3303Y-3.7475
X8.461Y-5.2475
X8.524Y-5.9975
X8.6373Y-3.7475
X8.7175Y-4.4975
X8.831Y-5.9975
X8.904Y-5.2475
X9.0246Y-4.4975
X9.0803Y-3.7475
X9.211Y-5.2475
X9.2675Y-5.9975
X9.3873Y-3.7475
X9.4675Y-4.4975
X9.5746Y-5.9975
X9.654Y-5.2475
X9.7746Y-4.4975
X9.8303Y-3.7475
X9.961Y-5.2475
X10.0304Y-5.9975
X10.1373Y-3.7475
X10.2175Y-4.4975
X10.3375Y-5.9975
X10.404Y-5.2475
X10.5246Y-4.4975
X10.5803Y-3.7475
X10.711Y-5.2475
X10.774Y-5.9975
X10.8873Y-3.7475
X10.9675Y-4.4975
X11.081Y-5.9975
X11.154Y-5.2475
X11.2746Y-4.4975
X11.3303Y-3.7475
X11.3403Y-2.8075
X11.461Y-5.2475
X11.524Y-5.9975
X11.6373Y-3.7475
X11.6473Y-2.8075
X11.7175Y-4.4975
X11.831Y-5.9975
X11.904Y-5.2475
X12.0246Y-4.4975
X12.0803Y-3.7475
X12.0903Y-2.8075
X12.211Y-5.2475
X12.274Y-5.9975
X12.3873Y-3.7475
X12.3973Y-2.8075
X12.4675Y-4.4975
X12.581Y-5.9975
X12.654Y-5.2475
X12.7746Y-4.4975
X12.8303Y-3.7475
X12.8403Y-2.8075
X12.961Y-5.2475
X13.024Y-5.9975
X13.1373Y-3.7475
X13.1473Y-2.8075
X13.2175Y-4.4975
X13.331Y-5.9975
X13.404Y-5.2475
X13.5246Y-4.4975
X13.5803Y-3.7475
X13.5903Y-2.8075
X13.711Y-5.2475
X13.8873Y-3.7475
X13.8973Y-2.8075
X13.9675Y-4.4975
X14.2746Y-4.4975
T2
X7.0575Y-2.2275
X7.0575Y-2.3275
X7.0575Y-2.4275
X7.0575Y-2.5275
X7.0575Y-2.6275
X7.0575Y-2.7275
X7.0575Y-2.8275
X7.1575Y-2.2275
X7.1575Y-2.8275
X7.2575Y-2.2275
X7.2575Y-2.8275
X7.3575Y-2.2275
X7.3575Y-2.8275
X7.4575Y-2.2275
X7.4575Y-2.8275
X7.5575Y-2.2275
X7.5575Y-2.8275
X7.6575Y-2.2275
X7.6575Y-2.8275
X7.7575Y-2.2275
X7.7575Y-2.3275
X7.7575Y-2.7275
X7.7575Y-2.8275
X7.8575Y-2.2275
X7.8575Y-2.8275
X7.9575Y-2.2275
X7.9575Y-2.8275
X8.0575Y-2.2275
X8.0575Y-2.8275
X8.1575Y-2.2275
X8.1575Y-2.8275
T3
X4.5287Y-4.0789
X4.646Y-4.1611
X4.7162Y-4.8289
X4.8335Y-4.9111
X4.9037Y-2.3914
X4.9037Y-3.3289
X5.021Y-2.4736
X5.021Y-3.4111
X5.0912Y-5.5789
X5.2085Y-5.6611
X5.2787Y-4.0789
X5.396Y-4.1611
X5.4662Y-4.8289
X5.5835Y-4.9111
X5.6537Y-2.3914
X5.6537Y-3.3289
X5.771Y-2.4736
X5.771Y-3.4111
X5.8412Y-5.5789
X5.9585Y-5.6611
X6.0287Y-4.0789
X6.146Y-4.1611
X6.2162Y-4.8289
X6.3335Y-4.9111
X6.4037Y-2.3914
X6.4037Y-3.3289
X6.521Y-2.4736
X6.521Y-3.4111
X6.5912Y-5.5789
X6.7085Y-5.6611
X6.7787Y-4.0789
X6.896Y-4.1611
X6.9662Y-4.8289
X7.0835Y-4.9111
X7.1537Y-3.3289
X7.271Y-3.4111
X7.3412Y-5.5789
X7.4585Y-5.6611
X7.5287Y-4.0789
X7.646Y-4.1611
X7.7162Y-4.8289
X7.8335Y-4.9111
X7.9037Y-3.3289
X8.021Y-3.4111
X8.0912Y-5.5789
X8.2085Y-5.6611
X8.2787Y-4.0789
X8.396Y-4.1611
X8.4662Y-4.8289
X8.5835Y-4.9111
X8.6537Y-3.3289
X8.771Y-3.4111
X8.8412Y-5.5789
X8.9585Y-5.6611
X9.0287Y-4.0789
X9.146Y-4.1611
X9.2162Y-4.8289
X9.2162Y-6.3289
X9.3335Y-4.9111
X9.3335Y-6.4111
X9.4037Y-3.3289
X9.521Y-3.4111
X9.5912Y-5.5789
X9.7085Y-5.6611
X9.7787Y-4.0789
X9.896Y-4.1611
X9.9662Y-4.8289
X10.0835Y-4.9111
X10.1537Y-3.3289
X10.271Y-3.4111
X10.3412Y-5.5789
X10.4585Y-5.6611
X10.5287Y-4.0789
X10.646Y-4.1611
X10.7162Y-4.8289
X10.8335Y-4.9111
X10.9037Y-3.3289
X11.021Y-3.4111
X11.0912Y-5.5789
X11.2085Y-5.6611
X11.2787Y-4.0789
X11.396Y-4.1611
X11.4662Y-4.8289
X11.5835Y-4.9111
X11.6537Y-2.3914
X11.6537Y-3.3289
X11.771Y-2.4736
X11.771Y-3.4111
X11.8412Y-5.5789
X11.9585Y-5.6611
X12.0287Y-4.0789
X12.146Y-4.1611
X12.2162Y-4.8289
X12.3335Y-4.9111
X12.4037Y-2.3914
X12.4037Y-3.3289
X12.521Y-2.4736
X12.521Y-3.4111
X12.5912Y-5.5789
X12.7085Y-5.6611
X12.7787Y-4.0789
X12.896Y-4.1611
X12.9662Y-4.8289
X13.0835Y-4.9111
X13.1537Y-2.3914
X13.1537Y-3.3289
X13.271Y-2.4736
X13.271Y-3.4111
X13.3412Y-5.5789
X13.4585Y-5.6611
X13.5287Y-4.0789
X13.646Y-4.1611
X13.7162Y-4.8289
X13.8335Y-4.9111
X13.9037Y-2.3914
X13.9037Y-3.3289
X14.021Y-2.4736
X14.021Y-3.4111
X14.2787Y-4.0789
X14.396Y-4.1611
T4
X4.4193Y-2.8669
X5.0768Y-4.1149
X5.2618Y-2.4377
X5.2618Y-4.8629
X5.4429Y-3.3669
X5.6398Y-5.607
X5.9902Y-6.5204
X6.1792Y-2.4377
X9.5729Y-4.8629
X11.4351Y-2.4377
X12.9469Y-5.607
X12.9862Y-6.5204
X13.3209Y-4.8629
X13.4981Y-3.3708
X13.6831Y-2.4377
X13.8799Y-4.1149
X14.5374Y-2.8669
T5
X6.8524Y-6.359
X9.0965Y-3.3708
X11.7225Y-6.359
T6
X4.7421Y-6.3118
X14.3484Y-2.3905
T0
M30
