%TF.GenerationSoftware,KiCad,Pcbnew,5.1.9-1.fc33*%
%TF.CreationDate,2021-02-28T14:37:16-05:00*%
%TF.ProjectId,3m_whisper,336d5f77-6869-4737-9065-722e6b696361,rev?*%
%TF.SameCoordinates,Original*%
%TF.FileFunction,Soldermask,Bot*%
%TF.FilePolarity,Negative*%
%FSLAX46Y46*%
G04 Gerber Fmt 4.6, Leading zero omitted, Abs format (unit mm)*
G04 Created by KiCad (PCBNEW 5.1.9-1.fc33) date 2021-02-28 14:37:16*
%MOMM*%
%LPD*%
G01*
G04 APERTURE LIST*
%ADD10C,4.900000*%
%ADD11C,5.700000*%
%ADD12C,7.900000*%
%ADD13C,1.600000*%
%ADD14R,1.600000X1.600000*%
%ADD15R,1.200000X1.200000*%
%ADD16C,3.200000*%
G04 APERTURE END LIST*
D10*
%TO.C,REF\u002A\u002A*%
X329850500Y-165618500D03*
%TD*%
%TO.C,REF\u002A\u002A*%
X152150500Y-165618500D03*
%TD*%
%TO.C,REF\u002A\u002A*%
X328850500Y-142418500D03*
%TD*%
%TO.C,REF\u002A\u002A*%
X338350500Y-123518500D03*
%TD*%
%TO.C,REF\u002A\u002A*%
X133650500Y-123518500D03*
%TD*%
%TO.C,REF\u002A\u002A*%
X128950500Y-104518500D03*
%TD*%
%TO.C,REF\u002A\u002A*%
X143250500Y-142418500D03*
%TD*%
%TO.C,REF\u002A\u002A*%
X243150500Y-123518500D03*
%TD*%
%TO.C,REF\u002A\u002A*%
X352550500Y-104518500D03*
%TD*%
%TO.C,REF\u002A\u002A*%
X342850500Y-85618500D03*
%TD*%
%TO.C,REF\u002A\u002A*%
X138250500Y-85518500D03*
%TD*%
%TO.C,REF\u002A\u002A*%
X112250500Y-72818500D03*
%TD*%
%TO.C,REF\u002A\u002A*%
X369250500Y-72818500D03*
%TD*%
%TO.C,REF\u002A\u002A*%
X347550500Y-61918500D03*
%TD*%
%TO.C,REF\u002A\u002A*%
X290450500Y-61918500D03*
%TD*%
%TO.C,REF\u002A\u002A*%
X156950500Y-61918500D03*
%TD*%
%TO.C,REF\u002A\u002A*%
X133650500Y-61918500D03*
%TD*%
D11*
%TO.C,REF\u002A\u002A*%
X297750500Y-161518500D03*
%TD*%
%TO.C,REF\u002A\u002A*%
X231050500Y-85618500D03*
%TD*%
%TO.C,REF\u002A\u002A*%
X174050500Y-161518500D03*
%TD*%
D12*
%TO.C,REF\u002A\u002A*%
X364450500Y-60718500D03*
%TD*%
%TO.C,REF\u002A\u002A*%
X120450500Y-160318500D03*
%TD*%
D13*
%TO.C,D1*%
X124138500Y-95186500D03*
D14*
X116338500Y-95186500D03*
D15*
X118663500Y-95186500D03*
X121813500Y-95186500D03*
%TD*%
%TO.C,D2*%
X140863500Y-95186500D03*
X137713500Y-95186500D03*
D14*
X135388500Y-95186500D03*
D13*
X143188500Y-95186500D03*
%TD*%
%TO.C,D3*%
X162238500Y-95186500D03*
D14*
X154438500Y-95186500D03*
D15*
X156763500Y-95186500D03*
X159913500Y-95186500D03*
%TD*%
%TO.C,D4*%
X178963500Y-95186500D03*
X175813500Y-95186500D03*
D14*
X173488500Y-95186500D03*
D13*
X181288500Y-95186500D03*
%TD*%
%TO.C,D5*%
X200338500Y-95186500D03*
D14*
X192538500Y-95186500D03*
D15*
X194863500Y-95186500D03*
X198013500Y-95186500D03*
%TD*%
%TO.C,D6*%
X217063500Y-95186500D03*
X213913500Y-95186500D03*
D14*
X211588500Y-95186500D03*
D13*
X219388500Y-95186500D03*
%TD*%
%TO.C,D7*%
X238438500Y-95186500D03*
D14*
X230638500Y-95186500D03*
D15*
X232963500Y-95186500D03*
X236113500Y-95186500D03*
%TD*%
%TO.C,D8*%
X255163500Y-95186500D03*
X252013500Y-95186500D03*
D14*
X249688500Y-95186500D03*
D13*
X257488500Y-95186500D03*
%TD*%
%TO.C,D9*%
X276538500Y-95186500D03*
D14*
X268738500Y-95186500D03*
D15*
X271063500Y-95186500D03*
X274213500Y-95186500D03*
%TD*%
%TO.C,D10*%
X293263500Y-95186500D03*
X290113500Y-95186500D03*
D14*
X287788500Y-95186500D03*
D13*
X295588500Y-95186500D03*
%TD*%
%TO.C,D11*%
X314638500Y-95186500D03*
D14*
X306838500Y-95186500D03*
D15*
X309163500Y-95186500D03*
X312313500Y-95186500D03*
%TD*%
%TO.C,D12*%
X331363500Y-95186500D03*
X328213500Y-95186500D03*
D14*
X325888500Y-95186500D03*
D13*
X333688500Y-95186500D03*
%TD*%
%TO.C,D13*%
X352738500Y-95186500D03*
D14*
X344938500Y-95186500D03*
D15*
X347263500Y-95186500D03*
X350413500Y-95186500D03*
%TD*%
%TO.C,D14*%
X117679500Y-114236500D03*
X114529500Y-114236500D03*
D14*
X112204500Y-114236500D03*
D13*
X120004500Y-114236500D03*
%TD*%
D15*
%TO.C,D15*%
X131649500Y-114236500D03*
X128499500Y-114236500D03*
D14*
X126174500Y-114236500D03*
D13*
X133974500Y-114236500D03*
%TD*%
%TO.C,D16*%
X153024500Y-114236500D03*
D14*
X145224500Y-114236500D03*
D15*
X147549500Y-114236500D03*
X150699500Y-114236500D03*
%TD*%
%TO.C,D17*%
X169749500Y-114236500D03*
X166599500Y-114236500D03*
D14*
X164274500Y-114236500D03*
D13*
X172074500Y-114236500D03*
%TD*%
%TO.C,D18*%
X191124500Y-114236500D03*
D14*
X183324500Y-114236500D03*
D15*
X185649500Y-114236500D03*
X188799500Y-114236500D03*
%TD*%
%TO.C,D19*%
X207849500Y-114236500D03*
X204699500Y-114236500D03*
D14*
X202374500Y-114236500D03*
D13*
X210174500Y-114236500D03*
%TD*%
%TO.C,D20*%
X229224500Y-114236500D03*
D14*
X221424500Y-114236500D03*
D15*
X223749500Y-114236500D03*
X226899500Y-114236500D03*
%TD*%
%TO.C,D21*%
X245949500Y-114236500D03*
X242799500Y-114236500D03*
D14*
X240474500Y-114236500D03*
D13*
X248274500Y-114236500D03*
%TD*%
%TO.C,D22*%
X267324500Y-114236500D03*
D14*
X259524500Y-114236500D03*
D15*
X261849500Y-114236500D03*
X264999500Y-114236500D03*
%TD*%
%TO.C,D23*%
X284049500Y-114236500D03*
X280899500Y-114236500D03*
D14*
X278574500Y-114236500D03*
D13*
X286374500Y-114236500D03*
%TD*%
%TO.C,D24*%
X305424500Y-114236500D03*
D14*
X297624500Y-114236500D03*
D15*
X299949500Y-114236500D03*
X303099500Y-114236500D03*
%TD*%
%TO.C,D25*%
X322149500Y-114236500D03*
X318999500Y-114236500D03*
D14*
X316674500Y-114236500D03*
D13*
X324474500Y-114236500D03*
%TD*%
%TO.C,D26*%
X343524500Y-114236500D03*
D14*
X335724500Y-114236500D03*
D15*
X338049500Y-114236500D03*
X341199500Y-114236500D03*
%TD*%
%TO.C,D27*%
X117335500Y-133286500D03*
X114185500Y-133286500D03*
D14*
X111860500Y-133286500D03*
D13*
X119660500Y-133286500D03*
%TD*%
%TO.C,D28*%
X138710500Y-133286500D03*
D14*
X130910500Y-133286500D03*
D15*
X133235500Y-133286500D03*
X136385500Y-133286500D03*
%TD*%
%TO.C,D29*%
X155435500Y-133286500D03*
X152285500Y-133286500D03*
D14*
X149960500Y-133286500D03*
D13*
X157760500Y-133286500D03*
%TD*%
%TO.C,D30*%
X176810500Y-133286500D03*
D14*
X169010500Y-133286500D03*
D15*
X171335500Y-133286500D03*
X174485500Y-133286500D03*
%TD*%
D13*
%TO.C,D31*%
X195860500Y-133286500D03*
D14*
X188060500Y-133286500D03*
D15*
X190385500Y-133286500D03*
X193535500Y-133286500D03*
%TD*%
%TO.C,D32*%
X212585500Y-133286500D03*
X209435500Y-133286500D03*
D14*
X207110500Y-133286500D03*
D13*
X214910500Y-133286500D03*
%TD*%
D15*
%TO.C,D33*%
X231635500Y-133286500D03*
X228485500Y-133286500D03*
D14*
X226160500Y-133286500D03*
D13*
X233960500Y-133286500D03*
%TD*%
%TO.C,D34*%
X253010500Y-133286500D03*
D14*
X245210500Y-133286500D03*
D15*
X247535500Y-133286500D03*
X250685500Y-133286500D03*
%TD*%
%TO.C,D35*%
X269735500Y-133286500D03*
X266585500Y-133286500D03*
D14*
X264260500Y-133286500D03*
D13*
X272060500Y-133286500D03*
%TD*%
%TO.C,D36*%
X291110500Y-133286500D03*
D14*
X283310500Y-133286500D03*
D15*
X285635500Y-133286500D03*
X288785500Y-133286500D03*
%TD*%
%TO.C,D37*%
X307835500Y-133286500D03*
X304685500Y-133286500D03*
D14*
X302360500Y-133286500D03*
D13*
X310160500Y-133286500D03*
%TD*%
%TO.C,D38*%
X329210500Y-133286500D03*
D14*
X321410500Y-133286500D03*
D15*
X323735500Y-133286500D03*
X326885500Y-133286500D03*
%TD*%
%TO.C,D39*%
X345935500Y-133286500D03*
X342785500Y-133286500D03*
D14*
X340460500Y-133286500D03*
D13*
X348260500Y-133286500D03*
%TD*%
%TO.C,D40*%
X129058500Y-152336500D03*
D14*
X121258500Y-152336500D03*
D15*
X123583500Y-152336500D03*
X126733500Y-152336500D03*
%TD*%
%TO.C,D41*%
X145783500Y-152336500D03*
X142633500Y-152336500D03*
D14*
X140308500Y-152336500D03*
D13*
X148108500Y-152336500D03*
%TD*%
%TO.C,D42*%
X167158500Y-152336500D03*
D14*
X159358500Y-152336500D03*
D15*
X161683500Y-152336500D03*
X164833500Y-152336500D03*
%TD*%
%TO.C,D43*%
X183883500Y-152336500D03*
X180733500Y-152336500D03*
D14*
X178408500Y-152336500D03*
D13*
X186208500Y-152336500D03*
%TD*%
%TO.C,D44*%
X205258500Y-152336500D03*
D14*
X197458500Y-152336500D03*
D15*
X199783500Y-152336500D03*
X202933500Y-152336500D03*
%TD*%
D13*
%TO.C,D45*%
X224308500Y-152336500D03*
D14*
X216508500Y-152336500D03*
D15*
X218833500Y-152336500D03*
X221983500Y-152336500D03*
%TD*%
D13*
%TO.C,D46*%
X211010500Y-164110500D03*
D14*
X211010500Y-156310500D03*
D15*
X211010500Y-158635500D03*
X211010500Y-161785500D03*
%TD*%
%TO.C,D47*%
X240869500Y-152336500D03*
X237719500Y-152336500D03*
D14*
X235394500Y-152336500D03*
D13*
X243194500Y-152336500D03*
%TD*%
%TO.C,D48*%
X262572500Y-152336500D03*
D14*
X254772500Y-152336500D03*
D15*
X257097500Y-152336500D03*
X260247500Y-152336500D03*
%TD*%
%TO.C,D49*%
X279133500Y-152336500D03*
X275983500Y-152336500D03*
D14*
X273658500Y-152336500D03*
D13*
X281458500Y-152336500D03*
%TD*%
%TO.C,D50*%
X300508500Y-152336500D03*
D14*
X292708500Y-152336500D03*
D15*
X295033500Y-152336500D03*
X298183500Y-152336500D03*
%TD*%
%TO.C,D51*%
X317233500Y-152336500D03*
X314083500Y-152336500D03*
D14*
X311758500Y-152336500D03*
D13*
X319558500Y-152336500D03*
%TD*%
%TO.C,D52*%
X338608500Y-152336500D03*
D14*
X330808500Y-152336500D03*
D15*
X333133500Y-152336500D03*
X336283500Y-152336500D03*
%TD*%
%TO.C,D53*%
X121907500Y-71310500D03*
X118757500Y-71310500D03*
D14*
X116432500Y-71310500D03*
D13*
X124232500Y-71310500D03*
%TD*%
%TO.C,D54*%
X143282500Y-71310500D03*
D14*
X135482500Y-71310500D03*
D15*
X137807500Y-71310500D03*
X140957500Y-71310500D03*
%TD*%
%TO.C,D55*%
X160007500Y-71310500D03*
X156857500Y-71310500D03*
D14*
X154532500Y-71310500D03*
D13*
X162332500Y-71310500D03*
%TD*%
D15*
%TO.C,D56*%
X293517500Y-71310500D03*
X290367500Y-71310500D03*
D14*
X288042500Y-71310500D03*
D13*
X295842500Y-71310500D03*
%TD*%
%TO.C,D57*%
X314892500Y-71310500D03*
D14*
X307092500Y-71310500D03*
D15*
X309417500Y-71310500D03*
X312567500Y-71310500D03*
%TD*%
%TO.C,D58*%
X331617500Y-71310500D03*
X328467500Y-71310500D03*
D14*
X326142500Y-71310500D03*
D13*
X333942500Y-71310500D03*
%TD*%
%TO.C,D59*%
X352992500Y-71310500D03*
D14*
X345192500Y-71310500D03*
D15*
X347517500Y-71310500D03*
X350667500Y-71310500D03*
%TD*%
%TO.C,D60*%
X360249500Y-114236500D03*
X357099500Y-114236500D03*
D14*
X354774500Y-114236500D03*
D13*
X362574500Y-114236500D03*
%TD*%
D16*
%TO.C,K1*%
X124553500Y-84553000D03*
X127533500Y-86643000D03*
%TD*%
%TO.C,K2*%
X143603500Y-84553000D03*
X146583500Y-86643000D03*
%TD*%
%TO.C,K3*%
X165633500Y-86643000D03*
X162653500Y-84553000D03*
%TD*%
%TO.C,K4*%
X181703500Y-84553000D03*
X184683500Y-86643000D03*
%TD*%
%TO.C,K5*%
X200753500Y-84553000D03*
X203733500Y-86643000D03*
%TD*%
%TO.C,K6*%
X219803500Y-84553000D03*
X222783500Y-86643000D03*
%TD*%
%TO.C,K7*%
X241833500Y-86643000D03*
X238853500Y-84553000D03*
%TD*%
%TO.C,K8*%
X260883500Y-86643000D03*
X257903500Y-84553000D03*
%TD*%
%TO.C,K9*%
X279933500Y-86643000D03*
X276953500Y-84553000D03*
%TD*%
%TO.C,K10*%
X298983500Y-86643000D03*
X296003500Y-84553000D03*
%TD*%
%TO.C,K11*%
X318033500Y-86643000D03*
X315053500Y-84553000D03*
%TD*%
%TO.C,K12*%
X337083500Y-86643000D03*
X334103500Y-84553000D03*
%TD*%
%TO.C,K13*%
X356133500Y-86643000D03*
X353153500Y-84553000D03*
%TD*%
%TO.C,K14*%
X115028500Y-103603000D03*
X118008500Y-105693000D03*
%TD*%
%TO.C,K15*%
X134078500Y-103603000D03*
X137058500Y-105693000D03*
%TD*%
%TO.C,K16*%
X156108500Y-105693000D03*
X153128500Y-103603000D03*
%TD*%
%TO.C,K17*%
X175158500Y-105693000D03*
X172178500Y-103603000D03*
%TD*%
%TO.C,K18*%
X194208500Y-105693000D03*
X191228500Y-103603000D03*
%TD*%
%TO.C,K19*%
X210278500Y-103603000D03*
X213258500Y-105693000D03*
%TD*%
%TO.C,K20*%
X232308500Y-105693000D03*
X229328500Y-103603000D03*
%TD*%
%TO.C,K21*%
X251358500Y-105693000D03*
X248378500Y-103603000D03*
%TD*%
%TO.C,K22*%
X270408500Y-105693000D03*
X267428500Y-103603000D03*
%TD*%
%TO.C,K23*%
X286478500Y-103603000D03*
X289458500Y-105693000D03*
%TD*%
%TO.C,K24*%
X308508500Y-105693000D03*
X305528500Y-103603000D03*
%TD*%
%TO.C,K25*%
X324578500Y-103603000D03*
X327558500Y-105693000D03*
%TD*%
%TO.C,K26*%
X346608500Y-105693000D03*
X343628500Y-103603000D03*
%TD*%
%TO.C,K27*%
X122771000Y-124743000D03*
X119791000Y-122653000D03*
%TD*%
%TO.C,K28*%
X141821000Y-124743000D03*
X138841000Y-122653000D03*
%TD*%
%TO.C,K29*%
X157891000Y-122653000D03*
X160871000Y-124743000D03*
%TD*%
%TO.C,K30*%
X179921000Y-124743000D03*
X176941000Y-122653000D03*
%TD*%
%TO.C,K31*%
X195991000Y-122653000D03*
X198971000Y-124743000D03*
%TD*%
%TO.C,K32*%
X218021000Y-124743000D03*
X215041000Y-122653000D03*
%TD*%
%TO.C,K33*%
X234091000Y-122653000D03*
X237071000Y-124743000D03*
%TD*%
%TO.C,K34*%
X256121000Y-124743000D03*
X253141000Y-122653000D03*
%TD*%
%TO.C,K35*%
X272191000Y-122653000D03*
X275171000Y-124743000D03*
%TD*%
%TO.C,K36*%
X291241000Y-122653000D03*
X294221000Y-124743000D03*
%TD*%
%TO.C,K37*%
X313271000Y-124743000D03*
X310291000Y-122653000D03*
%TD*%
%TO.C,K38*%
X329341000Y-122653000D03*
X332321000Y-124743000D03*
%TD*%
%TO.C,K39*%
X348391000Y-122653000D03*
X351371000Y-124743000D03*
%TD*%
%TO.C,K40*%
X129316000Y-141703000D03*
X132296000Y-143793000D03*
%TD*%
%TO.C,K41*%
X151346000Y-143793000D03*
X148366000Y-141703000D03*
%TD*%
%TO.C,K42*%
X170396000Y-143793000D03*
X167416000Y-141703000D03*
%TD*%
%TO.C,K43*%
X186466000Y-141703000D03*
X189446000Y-143793000D03*
%TD*%
%TO.C,K44*%
X208496000Y-143793000D03*
X205516000Y-141703000D03*
%TD*%
%TO.C,K45*%
X224566000Y-141703000D03*
X227546000Y-143793000D03*
%TD*%
%TO.C,K46*%
X234091000Y-160753000D03*
X237071000Y-162843000D03*
%TD*%
%TO.C,K47*%
X246596000Y-143793000D03*
X243616000Y-141703000D03*
%TD*%
%TO.C,K48*%
X262666000Y-141703000D03*
X265646000Y-143793000D03*
%TD*%
%TO.C,K49*%
X284696000Y-143793000D03*
X281716000Y-141703000D03*
%TD*%
%TO.C,K50*%
X300766000Y-141703000D03*
X303746000Y-143793000D03*
%TD*%
%TO.C,K51*%
X322796000Y-143793000D03*
X319816000Y-141703000D03*
%TD*%
%TO.C,K52*%
X338866000Y-141703000D03*
X341846000Y-143793000D03*
%TD*%
%TO.C,K53*%
X127533500Y-62830500D03*
X124553500Y-60740500D03*
%TD*%
%TO.C,K54*%
X146583500Y-62830500D03*
X143603500Y-60740500D03*
%TD*%
%TO.C,K55*%
X162653500Y-60740500D03*
X165633500Y-62830500D03*
%TD*%
%TO.C,K56*%
X296003500Y-60740500D03*
X298983500Y-62830500D03*
%TD*%
%TO.C,K57*%
X315053500Y-60740500D03*
X318033500Y-62830500D03*
%TD*%
%TO.C,K58*%
X334103500Y-60740500D03*
X337083500Y-62830500D03*
%TD*%
%TO.C,K59*%
X353153500Y-60740500D03*
X356133500Y-62830500D03*
%TD*%
%TO.C,K60*%
X362678500Y-103603000D03*
X365658500Y-105693000D03*
%TD*%
D13*
%TO.C,U1*%
X197040500Y-59118500D03*
X197040500Y-69278500D03*
X207200500Y-56578500D03*
X204660500Y-56578500D03*
X202120500Y-56578500D03*
X199580500Y-56578500D03*
X197040500Y-56578500D03*
X194500500Y-56578500D03*
X191960500Y-56578500D03*
X189420500Y-56578500D03*
X186880500Y-56578500D03*
X184340500Y-56578500D03*
X181800500Y-56578500D03*
X179260500Y-56578500D03*
X179260500Y-59118500D03*
X179260500Y-61658500D03*
X179260500Y-66738500D03*
X179260500Y-69278500D03*
X179260500Y-71818500D03*
X181800500Y-71818500D03*
X184340500Y-71818500D03*
X186880500Y-71818500D03*
X189420500Y-71818500D03*
X191960500Y-71818500D03*
X194500500Y-71818500D03*
X197040500Y-71818500D03*
X199580500Y-71818500D03*
X202120500Y-71818500D03*
X204660500Y-71818500D03*
D14*
X207200500Y-71818500D03*
D13*
X179260500Y-64198500D03*
%TD*%
M02*
