%TF.GenerationSoftware,KiCad,Pcbnew,5.1.9-1.fc33*%
%TF.CreationDate,2021-02-28T14:37:16-05:00*%
%TF.ProjectId,3m_whisper,336d5f77-6869-4737-9065-722e6b696361,rev?*%
%TF.SameCoordinates,Original*%
%TF.FileFunction,Legend,Top*%
%TF.FilePolarity,Positive*%
%FSLAX46Y46*%
G04 Gerber Fmt 4.6, Leading zero omitted, Abs format (unit mm)*
G04 Created by KiCad (PCBNEW 5.1.9-1.fc33) date 2021-02-28 14:37:16*
%MOMM*%
%LPD*%
G01*
G04 APERTURE LIST*
%ADD10C,0.120000*%
%ADD11C,0.150000*%
G04 APERTURE END LIST*
D10*
%TO.C,K1*%
X119058500Y-92583000D02*
X119058500Y-78613000D01*
X133028500Y-92583000D02*
X119058500Y-92583000D01*
X133028500Y-78613000D02*
X133028500Y-92583000D01*
X119058500Y-78613000D02*
X133028500Y-78613000D01*
%TO.C,K2*%
X138108500Y-92583000D02*
X138108500Y-78613000D01*
X152078500Y-92583000D02*
X138108500Y-92583000D01*
X152078500Y-78613000D02*
X152078500Y-92583000D01*
X138108500Y-78613000D02*
X152078500Y-78613000D01*
%TO.C,K3*%
X157158500Y-78613000D02*
X171128500Y-78613000D01*
X171128500Y-78613000D02*
X171128500Y-92583000D01*
X171128500Y-92583000D02*
X157158500Y-92583000D01*
X157158500Y-92583000D02*
X157158500Y-78613000D01*
%TO.C,K4*%
X176208500Y-92583000D02*
X176208500Y-78613000D01*
X190178500Y-92583000D02*
X176208500Y-92583000D01*
X190178500Y-78613000D02*
X190178500Y-92583000D01*
X176208500Y-78613000D02*
X190178500Y-78613000D01*
%TO.C,K5*%
X195258500Y-92583000D02*
X195258500Y-78613000D01*
X209228500Y-92583000D02*
X195258500Y-92583000D01*
X209228500Y-78613000D02*
X209228500Y-92583000D01*
X195258500Y-78613000D02*
X209228500Y-78613000D01*
%TO.C,K6*%
X214308500Y-92583000D02*
X214308500Y-78613000D01*
X228278500Y-92583000D02*
X214308500Y-92583000D01*
X228278500Y-78613000D02*
X228278500Y-92583000D01*
X214308500Y-78613000D02*
X228278500Y-78613000D01*
%TO.C,K7*%
X233358500Y-78613000D02*
X247328500Y-78613000D01*
X247328500Y-78613000D02*
X247328500Y-92583000D01*
X247328500Y-92583000D02*
X233358500Y-92583000D01*
X233358500Y-92583000D02*
X233358500Y-78613000D01*
%TO.C,K8*%
X252408500Y-78613000D02*
X266378500Y-78613000D01*
X266378500Y-78613000D02*
X266378500Y-92583000D01*
X266378500Y-92583000D02*
X252408500Y-92583000D01*
X252408500Y-92583000D02*
X252408500Y-78613000D01*
%TO.C,K9*%
X271458500Y-78613000D02*
X285428500Y-78613000D01*
X285428500Y-78613000D02*
X285428500Y-92583000D01*
X285428500Y-92583000D02*
X271458500Y-92583000D01*
X271458500Y-92583000D02*
X271458500Y-78613000D01*
%TO.C,K10*%
X290508500Y-78613000D02*
X304478500Y-78613000D01*
X304478500Y-78613000D02*
X304478500Y-92583000D01*
X304478500Y-92583000D02*
X290508500Y-92583000D01*
X290508500Y-92583000D02*
X290508500Y-78613000D01*
%TO.C,K11*%
X309558500Y-78613000D02*
X323528500Y-78613000D01*
X323528500Y-78613000D02*
X323528500Y-92583000D01*
X323528500Y-92583000D02*
X309558500Y-92583000D01*
X309558500Y-92583000D02*
X309558500Y-78613000D01*
%TO.C,K12*%
X328608500Y-78613000D02*
X342578500Y-78613000D01*
X342578500Y-78613000D02*
X342578500Y-92583000D01*
X342578500Y-92583000D02*
X328608500Y-92583000D01*
X328608500Y-92583000D02*
X328608500Y-78613000D01*
%TO.C,K13*%
X347658500Y-78613000D02*
X361628500Y-78613000D01*
X361628500Y-78613000D02*
X361628500Y-92583000D01*
X361628500Y-92583000D02*
X347658500Y-92583000D01*
X347658500Y-92583000D02*
X347658500Y-78613000D01*
%TO.C,K14*%
X109533500Y-111633000D02*
X109533500Y-97663000D01*
X123503500Y-111633000D02*
X109533500Y-111633000D01*
X123503500Y-97663000D02*
X123503500Y-111633000D01*
X109533500Y-97663000D02*
X123503500Y-97663000D01*
%TO.C,K15*%
X128583500Y-111633000D02*
X128583500Y-97663000D01*
X142553500Y-111633000D02*
X128583500Y-111633000D01*
X142553500Y-97663000D02*
X142553500Y-111633000D01*
X128583500Y-97663000D02*
X142553500Y-97663000D01*
%TO.C,K16*%
X147633500Y-97663000D02*
X161603500Y-97663000D01*
X161603500Y-97663000D02*
X161603500Y-111633000D01*
X161603500Y-111633000D02*
X147633500Y-111633000D01*
X147633500Y-111633000D02*
X147633500Y-97663000D01*
%TO.C,K17*%
X166683500Y-97663000D02*
X180653500Y-97663000D01*
X180653500Y-97663000D02*
X180653500Y-111633000D01*
X180653500Y-111633000D02*
X166683500Y-111633000D01*
X166683500Y-111633000D02*
X166683500Y-97663000D01*
%TO.C,K18*%
X185733500Y-97663000D02*
X199703500Y-97663000D01*
X199703500Y-97663000D02*
X199703500Y-111633000D01*
X199703500Y-111633000D02*
X185733500Y-111633000D01*
X185733500Y-111633000D02*
X185733500Y-97663000D01*
%TO.C,K19*%
X204783500Y-111633000D02*
X204783500Y-97663000D01*
X218753500Y-111633000D02*
X204783500Y-111633000D01*
X218753500Y-97663000D02*
X218753500Y-111633000D01*
X204783500Y-97663000D02*
X218753500Y-97663000D01*
%TO.C,K20*%
X223833500Y-97663000D02*
X237803500Y-97663000D01*
X237803500Y-97663000D02*
X237803500Y-111633000D01*
X237803500Y-111633000D02*
X223833500Y-111633000D01*
X223833500Y-111633000D02*
X223833500Y-97663000D01*
%TO.C,K21*%
X242883500Y-97663000D02*
X256853500Y-97663000D01*
X256853500Y-97663000D02*
X256853500Y-111633000D01*
X256853500Y-111633000D02*
X242883500Y-111633000D01*
X242883500Y-111633000D02*
X242883500Y-97663000D01*
%TO.C,K22*%
X261933500Y-97663000D02*
X275903500Y-97663000D01*
X275903500Y-97663000D02*
X275903500Y-111633000D01*
X275903500Y-111633000D02*
X261933500Y-111633000D01*
X261933500Y-111633000D02*
X261933500Y-97663000D01*
%TO.C,K23*%
X280983500Y-111633000D02*
X280983500Y-97663000D01*
X294953500Y-111633000D02*
X280983500Y-111633000D01*
X294953500Y-97663000D02*
X294953500Y-111633000D01*
X280983500Y-97663000D02*
X294953500Y-97663000D01*
%TO.C,K24*%
X300033500Y-97663000D02*
X314003500Y-97663000D01*
X314003500Y-97663000D02*
X314003500Y-111633000D01*
X314003500Y-111633000D02*
X300033500Y-111633000D01*
X300033500Y-111633000D02*
X300033500Y-97663000D01*
%TO.C,K25*%
X319083500Y-111633000D02*
X319083500Y-97663000D01*
X333053500Y-111633000D02*
X319083500Y-111633000D01*
X333053500Y-97663000D02*
X333053500Y-111633000D01*
X319083500Y-97663000D02*
X333053500Y-97663000D01*
%TO.C,K26*%
X338133500Y-97663000D02*
X352103500Y-97663000D01*
X352103500Y-97663000D02*
X352103500Y-111633000D01*
X352103500Y-111633000D02*
X338133500Y-111633000D01*
X338133500Y-111633000D02*
X338133500Y-97663000D01*
%TO.C,K27*%
X114296000Y-116713000D02*
X128266000Y-116713000D01*
X128266000Y-116713000D02*
X128266000Y-130683000D01*
X128266000Y-130683000D02*
X114296000Y-130683000D01*
X114296000Y-130683000D02*
X114296000Y-116713000D01*
%TO.C,K28*%
X133346000Y-116713000D02*
X147316000Y-116713000D01*
X147316000Y-116713000D02*
X147316000Y-130683000D01*
X147316000Y-130683000D02*
X133346000Y-130683000D01*
X133346000Y-130683000D02*
X133346000Y-116713000D01*
%TO.C,K29*%
X152396000Y-130683000D02*
X152396000Y-116713000D01*
X166366000Y-130683000D02*
X152396000Y-130683000D01*
X166366000Y-116713000D02*
X166366000Y-130683000D01*
X152396000Y-116713000D02*
X166366000Y-116713000D01*
%TO.C,K30*%
X171446000Y-116713000D02*
X185416000Y-116713000D01*
X185416000Y-116713000D02*
X185416000Y-130683000D01*
X185416000Y-130683000D02*
X171446000Y-130683000D01*
X171446000Y-130683000D02*
X171446000Y-116713000D01*
%TO.C,K31*%
X190496000Y-130683000D02*
X190496000Y-116713000D01*
X204466000Y-130683000D02*
X190496000Y-130683000D01*
X204466000Y-116713000D02*
X204466000Y-130683000D01*
X190496000Y-116713000D02*
X204466000Y-116713000D01*
%TO.C,K32*%
X209546000Y-116713000D02*
X223516000Y-116713000D01*
X223516000Y-116713000D02*
X223516000Y-130683000D01*
X223516000Y-130683000D02*
X209546000Y-130683000D01*
X209546000Y-130683000D02*
X209546000Y-116713000D01*
%TO.C,K33*%
X228596000Y-130683000D02*
X228596000Y-116713000D01*
X242566000Y-130683000D02*
X228596000Y-130683000D01*
X242566000Y-116713000D02*
X242566000Y-130683000D01*
X228596000Y-116713000D02*
X242566000Y-116713000D01*
%TO.C,K34*%
X247646000Y-116713000D02*
X261616000Y-116713000D01*
X261616000Y-116713000D02*
X261616000Y-130683000D01*
X261616000Y-130683000D02*
X247646000Y-130683000D01*
X247646000Y-130683000D02*
X247646000Y-116713000D01*
%TO.C,K35*%
X266696000Y-130683000D02*
X266696000Y-116713000D01*
X280666000Y-130683000D02*
X266696000Y-130683000D01*
X280666000Y-116713000D02*
X280666000Y-130683000D01*
X266696000Y-116713000D02*
X280666000Y-116713000D01*
%TO.C,K36*%
X285746000Y-130683000D02*
X285746000Y-116713000D01*
X299716000Y-130683000D02*
X285746000Y-130683000D01*
X299716000Y-116713000D02*
X299716000Y-130683000D01*
X285746000Y-116713000D02*
X299716000Y-116713000D01*
%TO.C,K37*%
X304796000Y-116713000D02*
X318766000Y-116713000D01*
X318766000Y-116713000D02*
X318766000Y-130683000D01*
X318766000Y-130683000D02*
X304796000Y-130683000D01*
X304796000Y-130683000D02*
X304796000Y-116713000D01*
%TO.C,K38*%
X323846000Y-130683000D02*
X323846000Y-116713000D01*
X337816000Y-130683000D02*
X323846000Y-130683000D01*
X337816000Y-116713000D02*
X337816000Y-130683000D01*
X323846000Y-116713000D02*
X337816000Y-116713000D01*
%TO.C,K39*%
X342896000Y-130683000D02*
X342896000Y-116713000D01*
X356866000Y-130683000D02*
X342896000Y-130683000D01*
X356866000Y-116713000D02*
X356866000Y-130683000D01*
X342896000Y-116713000D02*
X356866000Y-116713000D01*
%TO.C,K40*%
X123821000Y-149733000D02*
X123821000Y-135763000D01*
X137791000Y-149733000D02*
X123821000Y-149733000D01*
X137791000Y-135763000D02*
X137791000Y-149733000D01*
X123821000Y-135763000D02*
X137791000Y-135763000D01*
%TO.C,K41*%
X142871000Y-135763000D02*
X156841000Y-135763000D01*
X156841000Y-135763000D02*
X156841000Y-149733000D01*
X156841000Y-149733000D02*
X142871000Y-149733000D01*
X142871000Y-149733000D02*
X142871000Y-135763000D01*
%TO.C,K42*%
X161921000Y-135763000D02*
X175891000Y-135763000D01*
X175891000Y-135763000D02*
X175891000Y-149733000D01*
X175891000Y-149733000D02*
X161921000Y-149733000D01*
X161921000Y-149733000D02*
X161921000Y-135763000D01*
%TO.C,K43*%
X180971000Y-149733000D02*
X180971000Y-135763000D01*
X194941000Y-149733000D02*
X180971000Y-149733000D01*
X194941000Y-135763000D02*
X194941000Y-149733000D01*
X180971000Y-135763000D02*
X194941000Y-135763000D01*
%TO.C,K44*%
X200021000Y-135763000D02*
X213991000Y-135763000D01*
X213991000Y-135763000D02*
X213991000Y-149733000D01*
X213991000Y-149733000D02*
X200021000Y-149733000D01*
X200021000Y-149733000D02*
X200021000Y-135763000D01*
%TO.C,K45*%
X219071000Y-149733000D02*
X219071000Y-135763000D01*
X233041000Y-149733000D02*
X219071000Y-149733000D01*
X233041000Y-135763000D02*
X233041000Y-149733000D01*
X219071000Y-135763000D02*
X233041000Y-135763000D01*
%TO.C,K46*%
X228596000Y-168783000D02*
X228596000Y-154813000D01*
X242566000Y-168783000D02*
X228596000Y-168783000D01*
X242566000Y-154813000D02*
X242566000Y-168783000D01*
X228596000Y-154813000D02*
X242566000Y-154813000D01*
%TO.C,K47*%
X238121000Y-135763000D02*
X252091000Y-135763000D01*
X252091000Y-135763000D02*
X252091000Y-149733000D01*
X252091000Y-149733000D02*
X238121000Y-149733000D01*
X238121000Y-149733000D02*
X238121000Y-135763000D01*
%TO.C,K48*%
X257171000Y-149733000D02*
X257171000Y-135763000D01*
X271141000Y-149733000D02*
X257171000Y-149733000D01*
X271141000Y-135763000D02*
X271141000Y-149733000D01*
X257171000Y-135763000D02*
X271141000Y-135763000D01*
%TO.C,K49*%
X276221000Y-135763000D02*
X290191000Y-135763000D01*
X290191000Y-135763000D02*
X290191000Y-149733000D01*
X290191000Y-149733000D02*
X276221000Y-149733000D01*
X276221000Y-149733000D02*
X276221000Y-135763000D01*
%TO.C,K50*%
X295271000Y-149733000D02*
X295271000Y-135763000D01*
X309241000Y-149733000D02*
X295271000Y-149733000D01*
X309241000Y-135763000D02*
X309241000Y-149733000D01*
X295271000Y-135763000D02*
X309241000Y-135763000D01*
%TO.C,K51*%
X314321000Y-135763000D02*
X328291000Y-135763000D01*
X328291000Y-135763000D02*
X328291000Y-149733000D01*
X328291000Y-149733000D02*
X314321000Y-149733000D01*
X314321000Y-149733000D02*
X314321000Y-135763000D01*
%TO.C,K52*%
X333371000Y-149733000D02*
X333371000Y-135763000D01*
X347341000Y-149733000D02*
X333371000Y-149733000D01*
X347341000Y-135763000D02*
X347341000Y-149733000D01*
X333371000Y-135763000D02*
X347341000Y-135763000D01*
%TO.C,K53*%
X119058500Y-54800500D02*
X133028500Y-54800500D01*
X133028500Y-54800500D02*
X133028500Y-68770500D01*
X133028500Y-68770500D02*
X119058500Y-68770500D01*
X119058500Y-68770500D02*
X119058500Y-54800500D01*
%TO.C,K54*%
X138108500Y-54800500D02*
X152078500Y-54800500D01*
X152078500Y-54800500D02*
X152078500Y-68770500D01*
X152078500Y-68770500D02*
X138108500Y-68770500D01*
X138108500Y-68770500D02*
X138108500Y-54800500D01*
%TO.C,K55*%
X157158500Y-68770500D02*
X157158500Y-54800500D01*
X171128500Y-68770500D02*
X157158500Y-68770500D01*
X171128500Y-54800500D02*
X171128500Y-68770500D01*
X157158500Y-54800500D02*
X171128500Y-54800500D01*
%TO.C,K56*%
X290508500Y-68770500D02*
X290508500Y-54800500D01*
X304478500Y-68770500D02*
X290508500Y-68770500D01*
X304478500Y-54800500D02*
X304478500Y-68770500D01*
X290508500Y-54800500D02*
X304478500Y-54800500D01*
%TO.C,K57*%
X309558500Y-68770500D02*
X309558500Y-54800500D01*
X323528500Y-68770500D02*
X309558500Y-68770500D01*
X323528500Y-54800500D02*
X323528500Y-68770500D01*
X309558500Y-54800500D02*
X323528500Y-54800500D01*
%TO.C,K58*%
X328608500Y-68770500D02*
X328608500Y-54800500D01*
X342578500Y-68770500D02*
X328608500Y-68770500D01*
X342578500Y-54800500D02*
X342578500Y-68770500D01*
X328608500Y-54800500D02*
X342578500Y-54800500D01*
%TO.C,K59*%
X347658500Y-68770500D02*
X347658500Y-54800500D01*
X361628500Y-68770500D02*
X347658500Y-68770500D01*
X361628500Y-54800500D02*
X361628500Y-68770500D01*
X347658500Y-54800500D02*
X361628500Y-54800500D01*
%TO.C,K60*%
X357183500Y-111633000D02*
X357183500Y-97663000D01*
X371153500Y-111633000D02*
X357183500Y-111633000D01*
X371153500Y-97663000D02*
X371153500Y-111633000D01*
X357183500Y-97663000D02*
X371153500Y-97663000D01*
%TO.C,REF\u002A\u002A*%
D11*
X328517166Y-162768880D02*
X328183833Y-162292690D01*
X327945738Y-162768880D02*
X327945738Y-161768880D01*
X328326690Y-161768880D01*
X328421928Y-161816500D01*
X328469547Y-161864119D01*
X328517166Y-161959357D01*
X328517166Y-162102214D01*
X328469547Y-162197452D01*
X328421928Y-162245071D01*
X328326690Y-162292690D01*
X327945738Y-162292690D01*
X328945738Y-162245071D02*
X329279071Y-162245071D01*
X329421928Y-162768880D02*
X328945738Y-162768880D01*
X328945738Y-161768880D01*
X329421928Y-161768880D01*
X330183833Y-162245071D02*
X329850500Y-162245071D01*
X329850500Y-162768880D02*
X329850500Y-161768880D01*
X330326690Y-161768880D01*
X330850500Y-161768880D02*
X330850500Y-162006976D01*
X330612404Y-161911738D02*
X330850500Y-162006976D01*
X331088595Y-161911738D01*
X330707642Y-162197452D02*
X330850500Y-162006976D01*
X330993357Y-162197452D01*
X331612404Y-161768880D02*
X331612404Y-162006976D01*
X331374309Y-161911738D02*
X331612404Y-162006976D01*
X331850500Y-161911738D01*
X331469547Y-162197452D02*
X331612404Y-162006976D01*
X331755261Y-162197452D01*
X150817166Y-162768880D02*
X150483833Y-162292690D01*
X150245738Y-162768880D02*
X150245738Y-161768880D01*
X150626690Y-161768880D01*
X150721928Y-161816500D01*
X150769547Y-161864119D01*
X150817166Y-161959357D01*
X150817166Y-162102214D01*
X150769547Y-162197452D01*
X150721928Y-162245071D01*
X150626690Y-162292690D01*
X150245738Y-162292690D01*
X151245738Y-162245071D02*
X151579071Y-162245071D01*
X151721928Y-162768880D02*
X151245738Y-162768880D01*
X151245738Y-161768880D01*
X151721928Y-161768880D01*
X152483833Y-162245071D02*
X152150500Y-162245071D01*
X152150500Y-162768880D02*
X152150500Y-161768880D01*
X152626690Y-161768880D01*
X153150500Y-161768880D02*
X153150500Y-162006976D01*
X152912404Y-161911738D02*
X153150500Y-162006976D01*
X153388595Y-161911738D01*
X153007642Y-162197452D02*
X153150500Y-162006976D01*
X153293357Y-162197452D01*
X153912404Y-161768880D02*
X153912404Y-162006976D01*
X153674309Y-161911738D02*
X153912404Y-162006976D01*
X154150500Y-161911738D01*
X153769547Y-162197452D02*
X153912404Y-162006976D01*
X154055261Y-162197452D01*
X327517166Y-139568880D02*
X327183833Y-139092690D01*
X326945738Y-139568880D02*
X326945738Y-138568880D01*
X327326690Y-138568880D01*
X327421928Y-138616500D01*
X327469547Y-138664119D01*
X327517166Y-138759357D01*
X327517166Y-138902214D01*
X327469547Y-138997452D01*
X327421928Y-139045071D01*
X327326690Y-139092690D01*
X326945738Y-139092690D01*
X327945738Y-139045071D02*
X328279071Y-139045071D01*
X328421928Y-139568880D02*
X327945738Y-139568880D01*
X327945738Y-138568880D01*
X328421928Y-138568880D01*
X329183833Y-139045071D02*
X328850500Y-139045071D01*
X328850500Y-139568880D02*
X328850500Y-138568880D01*
X329326690Y-138568880D01*
X329850500Y-138568880D02*
X329850500Y-138806976D01*
X329612404Y-138711738D02*
X329850500Y-138806976D01*
X330088595Y-138711738D01*
X329707642Y-138997452D02*
X329850500Y-138806976D01*
X329993357Y-138997452D01*
X330612404Y-138568880D02*
X330612404Y-138806976D01*
X330374309Y-138711738D02*
X330612404Y-138806976D01*
X330850500Y-138711738D01*
X330469547Y-138997452D02*
X330612404Y-138806976D01*
X330755261Y-138997452D01*
X337017166Y-120668880D02*
X336683833Y-120192690D01*
X336445738Y-120668880D02*
X336445738Y-119668880D01*
X336826690Y-119668880D01*
X336921928Y-119716500D01*
X336969547Y-119764119D01*
X337017166Y-119859357D01*
X337017166Y-120002214D01*
X336969547Y-120097452D01*
X336921928Y-120145071D01*
X336826690Y-120192690D01*
X336445738Y-120192690D01*
X337445738Y-120145071D02*
X337779071Y-120145071D01*
X337921928Y-120668880D02*
X337445738Y-120668880D01*
X337445738Y-119668880D01*
X337921928Y-119668880D01*
X338683833Y-120145071D02*
X338350500Y-120145071D01*
X338350500Y-120668880D02*
X338350500Y-119668880D01*
X338826690Y-119668880D01*
X339350500Y-119668880D02*
X339350500Y-119906976D01*
X339112404Y-119811738D02*
X339350500Y-119906976D01*
X339588595Y-119811738D01*
X339207642Y-120097452D02*
X339350500Y-119906976D01*
X339493357Y-120097452D01*
X340112404Y-119668880D02*
X340112404Y-119906976D01*
X339874309Y-119811738D02*
X340112404Y-119906976D01*
X340350500Y-119811738D01*
X339969547Y-120097452D02*
X340112404Y-119906976D01*
X340255261Y-120097452D01*
X132317166Y-120668880D02*
X131983833Y-120192690D01*
X131745738Y-120668880D02*
X131745738Y-119668880D01*
X132126690Y-119668880D01*
X132221928Y-119716500D01*
X132269547Y-119764119D01*
X132317166Y-119859357D01*
X132317166Y-120002214D01*
X132269547Y-120097452D01*
X132221928Y-120145071D01*
X132126690Y-120192690D01*
X131745738Y-120192690D01*
X132745738Y-120145071D02*
X133079071Y-120145071D01*
X133221928Y-120668880D02*
X132745738Y-120668880D01*
X132745738Y-119668880D01*
X133221928Y-119668880D01*
X133983833Y-120145071D02*
X133650500Y-120145071D01*
X133650500Y-120668880D02*
X133650500Y-119668880D01*
X134126690Y-119668880D01*
X134650500Y-119668880D02*
X134650500Y-119906976D01*
X134412404Y-119811738D02*
X134650500Y-119906976D01*
X134888595Y-119811738D01*
X134507642Y-120097452D02*
X134650500Y-119906976D01*
X134793357Y-120097452D01*
X135412404Y-119668880D02*
X135412404Y-119906976D01*
X135174309Y-119811738D02*
X135412404Y-119906976D01*
X135650500Y-119811738D01*
X135269547Y-120097452D02*
X135412404Y-119906976D01*
X135555261Y-120097452D01*
X127617166Y-101668880D02*
X127283833Y-101192690D01*
X127045738Y-101668880D02*
X127045738Y-100668880D01*
X127426690Y-100668880D01*
X127521928Y-100716500D01*
X127569547Y-100764119D01*
X127617166Y-100859357D01*
X127617166Y-101002214D01*
X127569547Y-101097452D01*
X127521928Y-101145071D01*
X127426690Y-101192690D01*
X127045738Y-101192690D01*
X128045738Y-101145071D02*
X128379071Y-101145071D01*
X128521928Y-101668880D02*
X128045738Y-101668880D01*
X128045738Y-100668880D01*
X128521928Y-100668880D01*
X129283833Y-101145071D02*
X128950500Y-101145071D01*
X128950500Y-101668880D02*
X128950500Y-100668880D01*
X129426690Y-100668880D01*
X129950500Y-100668880D02*
X129950500Y-100906976D01*
X129712404Y-100811738D02*
X129950500Y-100906976D01*
X130188595Y-100811738D01*
X129807642Y-101097452D02*
X129950500Y-100906976D01*
X130093357Y-101097452D01*
X130712404Y-100668880D02*
X130712404Y-100906976D01*
X130474309Y-100811738D02*
X130712404Y-100906976D01*
X130950500Y-100811738D01*
X130569547Y-101097452D02*
X130712404Y-100906976D01*
X130855261Y-101097452D01*
X141917166Y-139568880D02*
X141583833Y-139092690D01*
X141345738Y-139568880D02*
X141345738Y-138568880D01*
X141726690Y-138568880D01*
X141821928Y-138616500D01*
X141869547Y-138664119D01*
X141917166Y-138759357D01*
X141917166Y-138902214D01*
X141869547Y-138997452D01*
X141821928Y-139045071D01*
X141726690Y-139092690D01*
X141345738Y-139092690D01*
X142345738Y-139045071D02*
X142679071Y-139045071D01*
X142821928Y-139568880D02*
X142345738Y-139568880D01*
X142345738Y-138568880D01*
X142821928Y-138568880D01*
X143583833Y-139045071D02*
X143250500Y-139045071D01*
X143250500Y-139568880D02*
X143250500Y-138568880D01*
X143726690Y-138568880D01*
X144250500Y-138568880D02*
X144250500Y-138806976D01*
X144012404Y-138711738D02*
X144250500Y-138806976D01*
X144488595Y-138711738D01*
X144107642Y-138997452D02*
X144250500Y-138806976D01*
X144393357Y-138997452D01*
X145012404Y-138568880D02*
X145012404Y-138806976D01*
X144774309Y-138711738D02*
X145012404Y-138806976D01*
X145250500Y-138711738D01*
X144869547Y-138997452D02*
X145012404Y-138806976D01*
X145155261Y-138997452D01*
X241817166Y-120668880D02*
X241483833Y-120192690D01*
X241245738Y-120668880D02*
X241245738Y-119668880D01*
X241626690Y-119668880D01*
X241721928Y-119716500D01*
X241769547Y-119764119D01*
X241817166Y-119859357D01*
X241817166Y-120002214D01*
X241769547Y-120097452D01*
X241721928Y-120145071D01*
X241626690Y-120192690D01*
X241245738Y-120192690D01*
X242245738Y-120145071D02*
X242579071Y-120145071D01*
X242721928Y-120668880D02*
X242245738Y-120668880D01*
X242245738Y-119668880D01*
X242721928Y-119668880D01*
X243483833Y-120145071D02*
X243150500Y-120145071D01*
X243150500Y-120668880D02*
X243150500Y-119668880D01*
X243626690Y-119668880D01*
X244150500Y-119668880D02*
X244150500Y-119906976D01*
X243912404Y-119811738D02*
X244150500Y-119906976D01*
X244388595Y-119811738D01*
X244007642Y-120097452D02*
X244150500Y-119906976D01*
X244293357Y-120097452D01*
X244912404Y-119668880D02*
X244912404Y-119906976D01*
X244674309Y-119811738D02*
X244912404Y-119906976D01*
X245150500Y-119811738D01*
X244769547Y-120097452D02*
X244912404Y-119906976D01*
X245055261Y-120097452D01*
X351217166Y-101668880D02*
X350883833Y-101192690D01*
X350645738Y-101668880D02*
X350645738Y-100668880D01*
X351026690Y-100668880D01*
X351121928Y-100716500D01*
X351169547Y-100764119D01*
X351217166Y-100859357D01*
X351217166Y-101002214D01*
X351169547Y-101097452D01*
X351121928Y-101145071D01*
X351026690Y-101192690D01*
X350645738Y-101192690D01*
X351645738Y-101145071D02*
X351979071Y-101145071D01*
X352121928Y-101668880D02*
X351645738Y-101668880D01*
X351645738Y-100668880D01*
X352121928Y-100668880D01*
X352883833Y-101145071D02*
X352550500Y-101145071D01*
X352550500Y-101668880D02*
X352550500Y-100668880D01*
X353026690Y-100668880D01*
X353550500Y-100668880D02*
X353550500Y-100906976D01*
X353312404Y-100811738D02*
X353550500Y-100906976D01*
X353788595Y-100811738D01*
X353407642Y-101097452D02*
X353550500Y-100906976D01*
X353693357Y-101097452D01*
X354312404Y-100668880D02*
X354312404Y-100906976D01*
X354074309Y-100811738D02*
X354312404Y-100906976D01*
X354550500Y-100811738D01*
X354169547Y-101097452D02*
X354312404Y-100906976D01*
X354455261Y-101097452D01*
X341517166Y-82768880D02*
X341183833Y-82292690D01*
X340945738Y-82768880D02*
X340945738Y-81768880D01*
X341326690Y-81768880D01*
X341421928Y-81816500D01*
X341469547Y-81864119D01*
X341517166Y-81959357D01*
X341517166Y-82102214D01*
X341469547Y-82197452D01*
X341421928Y-82245071D01*
X341326690Y-82292690D01*
X340945738Y-82292690D01*
X341945738Y-82245071D02*
X342279071Y-82245071D01*
X342421928Y-82768880D02*
X341945738Y-82768880D01*
X341945738Y-81768880D01*
X342421928Y-81768880D01*
X343183833Y-82245071D02*
X342850500Y-82245071D01*
X342850500Y-82768880D02*
X342850500Y-81768880D01*
X343326690Y-81768880D01*
X343850500Y-81768880D02*
X343850500Y-82006976D01*
X343612404Y-81911738D02*
X343850500Y-82006976D01*
X344088595Y-81911738D01*
X343707642Y-82197452D02*
X343850500Y-82006976D01*
X343993357Y-82197452D01*
X344612404Y-81768880D02*
X344612404Y-82006976D01*
X344374309Y-81911738D02*
X344612404Y-82006976D01*
X344850500Y-81911738D01*
X344469547Y-82197452D02*
X344612404Y-82006976D01*
X344755261Y-82197452D01*
X136917166Y-82668880D02*
X136583833Y-82192690D01*
X136345738Y-82668880D02*
X136345738Y-81668880D01*
X136726690Y-81668880D01*
X136821928Y-81716500D01*
X136869547Y-81764119D01*
X136917166Y-81859357D01*
X136917166Y-82002214D01*
X136869547Y-82097452D01*
X136821928Y-82145071D01*
X136726690Y-82192690D01*
X136345738Y-82192690D01*
X137345738Y-82145071D02*
X137679071Y-82145071D01*
X137821928Y-82668880D02*
X137345738Y-82668880D01*
X137345738Y-81668880D01*
X137821928Y-81668880D01*
X138583833Y-82145071D02*
X138250500Y-82145071D01*
X138250500Y-82668880D02*
X138250500Y-81668880D01*
X138726690Y-81668880D01*
X139250500Y-81668880D02*
X139250500Y-81906976D01*
X139012404Y-81811738D02*
X139250500Y-81906976D01*
X139488595Y-81811738D01*
X139107642Y-82097452D02*
X139250500Y-81906976D01*
X139393357Y-82097452D01*
X140012404Y-81668880D02*
X140012404Y-81906976D01*
X139774309Y-81811738D02*
X140012404Y-81906976D01*
X140250500Y-81811738D01*
X139869547Y-82097452D02*
X140012404Y-81906976D01*
X140155261Y-82097452D01*
X110917166Y-69968880D02*
X110583833Y-69492690D01*
X110345738Y-69968880D02*
X110345738Y-68968880D01*
X110726690Y-68968880D01*
X110821928Y-69016500D01*
X110869547Y-69064119D01*
X110917166Y-69159357D01*
X110917166Y-69302214D01*
X110869547Y-69397452D01*
X110821928Y-69445071D01*
X110726690Y-69492690D01*
X110345738Y-69492690D01*
X111345738Y-69445071D02*
X111679071Y-69445071D01*
X111821928Y-69968880D02*
X111345738Y-69968880D01*
X111345738Y-68968880D01*
X111821928Y-68968880D01*
X112583833Y-69445071D02*
X112250500Y-69445071D01*
X112250500Y-69968880D02*
X112250500Y-68968880D01*
X112726690Y-68968880D01*
X113250500Y-68968880D02*
X113250500Y-69206976D01*
X113012404Y-69111738D02*
X113250500Y-69206976D01*
X113488595Y-69111738D01*
X113107642Y-69397452D02*
X113250500Y-69206976D01*
X113393357Y-69397452D01*
X114012404Y-68968880D02*
X114012404Y-69206976D01*
X113774309Y-69111738D02*
X114012404Y-69206976D01*
X114250500Y-69111738D01*
X113869547Y-69397452D02*
X114012404Y-69206976D01*
X114155261Y-69397452D01*
X367917166Y-69968880D02*
X367583833Y-69492690D01*
X367345738Y-69968880D02*
X367345738Y-68968880D01*
X367726690Y-68968880D01*
X367821928Y-69016500D01*
X367869547Y-69064119D01*
X367917166Y-69159357D01*
X367917166Y-69302214D01*
X367869547Y-69397452D01*
X367821928Y-69445071D01*
X367726690Y-69492690D01*
X367345738Y-69492690D01*
X368345738Y-69445071D02*
X368679071Y-69445071D01*
X368821928Y-69968880D02*
X368345738Y-69968880D01*
X368345738Y-68968880D01*
X368821928Y-68968880D01*
X369583833Y-69445071D02*
X369250500Y-69445071D01*
X369250500Y-69968880D02*
X369250500Y-68968880D01*
X369726690Y-68968880D01*
X370250500Y-68968880D02*
X370250500Y-69206976D01*
X370012404Y-69111738D02*
X370250500Y-69206976D01*
X370488595Y-69111738D01*
X370107642Y-69397452D02*
X370250500Y-69206976D01*
X370393357Y-69397452D01*
X371012404Y-68968880D02*
X371012404Y-69206976D01*
X370774309Y-69111738D02*
X371012404Y-69206976D01*
X371250500Y-69111738D01*
X370869547Y-69397452D02*
X371012404Y-69206976D01*
X371155261Y-69397452D01*
X346217166Y-59068880D02*
X345883833Y-58592690D01*
X345645738Y-59068880D02*
X345645738Y-58068880D01*
X346026690Y-58068880D01*
X346121928Y-58116500D01*
X346169547Y-58164119D01*
X346217166Y-58259357D01*
X346217166Y-58402214D01*
X346169547Y-58497452D01*
X346121928Y-58545071D01*
X346026690Y-58592690D01*
X345645738Y-58592690D01*
X346645738Y-58545071D02*
X346979071Y-58545071D01*
X347121928Y-59068880D02*
X346645738Y-59068880D01*
X346645738Y-58068880D01*
X347121928Y-58068880D01*
X347883833Y-58545071D02*
X347550500Y-58545071D01*
X347550500Y-59068880D02*
X347550500Y-58068880D01*
X348026690Y-58068880D01*
X348550500Y-58068880D02*
X348550500Y-58306976D01*
X348312404Y-58211738D02*
X348550500Y-58306976D01*
X348788595Y-58211738D01*
X348407642Y-58497452D02*
X348550500Y-58306976D01*
X348693357Y-58497452D01*
X349312404Y-58068880D02*
X349312404Y-58306976D01*
X349074309Y-58211738D02*
X349312404Y-58306976D01*
X349550500Y-58211738D01*
X349169547Y-58497452D02*
X349312404Y-58306976D01*
X349455261Y-58497452D01*
X289117166Y-59068880D02*
X288783833Y-58592690D01*
X288545738Y-59068880D02*
X288545738Y-58068880D01*
X288926690Y-58068880D01*
X289021928Y-58116500D01*
X289069547Y-58164119D01*
X289117166Y-58259357D01*
X289117166Y-58402214D01*
X289069547Y-58497452D01*
X289021928Y-58545071D01*
X288926690Y-58592690D01*
X288545738Y-58592690D01*
X289545738Y-58545071D02*
X289879071Y-58545071D01*
X290021928Y-59068880D02*
X289545738Y-59068880D01*
X289545738Y-58068880D01*
X290021928Y-58068880D01*
X290783833Y-58545071D02*
X290450500Y-58545071D01*
X290450500Y-59068880D02*
X290450500Y-58068880D01*
X290926690Y-58068880D01*
X291450500Y-58068880D02*
X291450500Y-58306976D01*
X291212404Y-58211738D02*
X291450500Y-58306976D01*
X291688595Y-58211738D01*
X291307642Y-58497452D02*
X291450500Y-58306976D01*
X291593357Y-58497452D01*
X292212404Y-58068880D02*
X292212404Y-58306976D01*
X291974309Y-58211738D02*
X292212404Y-58306976D01*
X292450500Y-58211738D01*
X292069547Y-58497452D02*
X292212404Y-58306976D01*
X292355261Y-58497452D01*
X155617166Y-59068880D02*
X155283833Y-58592690D01*
X155045738Y-59068880D02*
X155045738Y-58068880D01*
X155426690Y-58068880D01*
X155521928Y-58116500D01*
X155569547Y-58164119D01*
X155617166Y-58259357D01*
X155617166Y-58402214D01*
X155569547Y-58497452D01*
X155521928Y-58545071D01*
X155426690Y-58592690D01*
X155045738Y-58592690D01*
X156045738Y-58545071D02*
X156379071Y-58545071D01*
X156521928Y-59068880D02*
X156045738Y-59068880D01*
X156045738Y-58068880D01*
X156521928Y-58068880D01*
X157283833Y-58545071D02*
X156950500Y-58545071D01*
X156950500Y-59068880D02*
X156950500Y-58068880D01*
X157426690Y-58068880D01*
X157950500Y-58068880D02*
X157950500Y-58306976D01*
X157712404Y-58211738D02*
X157950500Y-58306976D01*
X158188595Y-58211738D01*
X157807642Y-58497452D02*
X157950500Y-58306976D01*
X158093357Y-58497452D01*
X158712404Y-58068880D02*
X158712404Y-58306976D01*
X158474309Y-58211738D02*
X158712404Y-58306976D01*
X158950500Y-58211738D01*
X158569547Y-58497452D02*
X158712404Y-58306976D01*
X158855261Y-58497452D01*
X132317166Y-59068880D02*
X131983833Y-58592690D01*
X131745738Y-59068880D02*
X131745738Y-58068880D01*
X132126690Y-58068880D01*
X132221928Y-58116500D01*
X132269547Y-58164119D01*
X132317166Y-58259357D01*
X132317166Y-58402214D01*
X132269547Y-58497452D01*
X132221928Y-58545071D01*
X132126690Y-58592690D01*
X131745738Y-58592690D01*
X132745738Y-58545071D02*
X133079071Y-58545071D01*
X133221928Y-59068880D02*
X132745738Y-59068880D01*
X132745738Y-58068880D01*
X133221928Y-58068880D01*
X133983833Y-58545071D02*
X133650500Y-58545071D01*
X133650500Y-59068880D02*
X133650500Y-58068880D01*
X134126690Y-58068880D01*
X134650500Y-58068880D02*
X134650500Y-58306976D01*
X134412404Y-58211738D02*
X134650500Y-58306976D01*
X134888595Y-58211738D01*
X134507642Y-58497452D02*
X134650500Y-58306976D01*
X134793357Y-58497452D01*
X135412404Y-58068880D02*
X135412404Y-58306976D01*
X135174309Y-58211738D02*
X135412404Y-58306976D01*
X135650500Y-58211738D01*
X135269547Y-58497452D02*
X135412404Y-58306976D01*
X135555261Y-58497452D01*
X296417166Y-158160880D02*
X296083833Y-157684690D01*
X295845738Y-158160880D02*
X295845738Y-157160880D01*
X296226690Y-157160880D01*
X296321928Y-157208500D01*
X296369547Y-157256119D01*
X296417166Y-157351357D01*
X296417166Y-157494214D01*
X296369547Y-157589452D01*
X296321928Y-157637071D01*
X296226690Y-157684690D01*
X295845738Y-157684690D01*
X296845738Y-157637071D02*
X297179071Y-157637071D01*
X297321928Y-158160880D02*
X296845738Y-158160880D01*
X296845738Y-157160880D01*
X297321928Y-157160880D01*
X298083833Y-157637071D02*
X297750500Y-157637071D01*
X297750500Y-158160880D02*
X297750500Y-157160880D01*
X298226690Y-157160880D01*
X298750500Y-157160880D02*
X298750500Y-157398976D01*
X298512404Y-157303738D02*
X298750500Y-157398976D01*
X298988595Y-157303738D01*
X298607642Y-157589452D02*
X298750500Y-157398976D01*
X298893357Y-157589452D01*
X299512404Y-157160880D02*
X299512404Y-157398976D01*
X299274309Y-157303738D02*
X299512404Y-157398976D01*
X299750500Y-157303738D01*
X299369547Y-157589452D02*
X299512404Y-157398976D01*
X299655261Y-157589452D01*
X229717166Y-82260880D02*
X229383833Y-81784690D01*
X229145738Y-82260880D02*
X229145738Y-81260880D01*
X229526690Y-81260880D01*
X229621928Y-81308500D01*
X229669547Y-81356119D01*
X229717166Y-81451357D01*
X229717166Y-81594214D01*
X229669547Y-81689452D01*
X229621928Y-81737071D01*
X229526690Y-81784690D01*
X229145738Y-81784690D01*
X230145738Y-81737071D02*
X230479071Y-81737071D01*
X230621928Y-82260880D02*
X230145738Y-82260880D01*
X230145738Y-81260880D01*
X230621928Y-81260880D01*
X231383833Y-81737071D02*
X231050500Y-81737071D01*
X231050500Y-82260880D02*
X231050500Y-81260880D01*
X231526690Y-81260880D01*
X232050500Y-81260880D02*
X232050500Y-81498976D01*
X231812404Y-81403738D02*
X232050500Y-81498976D01*
X232288595Y-81403738D01*
X231907642Y-81689452D02*
X232050500Y-81498976D01*
X232193357Y-81689452D01*
X232812404Y-81260880D02*
X232812404Y-81498976D01*
X232574309Y-81403738D02*
X232812404Y-81498976D01*
X233050500Y-81403738D01*
X232669547Y-81689452D02*
X232812404Y-81498976D01*
X232955261Y-81689452D01*
X172717166Y-158160880D02*
X172383833Y-157684690D01*
X172145738Y-158160880D02*
X172145738Y-157160880D01*
X172526690Y-157160880D01*
X172621928Y-157208500D01*
X172669547Y-157256119D01*
X172717166Y-157351357D01*
X172717166Y-157494214D01*
X172669547Y-157589452D01*
X172621928Y-157637071D01*
X172526690Y-157684690D01*
X172145738Y-157684690D01*
X173145738Y-157637071D02*
X173479071Y-157637071D01*
X173621928Y-158160880D02*
X173145738Y-158160880D01*
X173145738Y-157160880D01*
X173621928Y-157160880D01*
X174383833Y-157637071D02*
X174050500Y-157637071D01*
X174050500Y-158160880D02*
X174050500Y-157160880D01*
X174526690Y-157160880D01*
X175050500Y-157160880D02*
X175050500Y-157398976D01*
X174812404Y-157303738D02*
X175050500Y-157398976D01*
X175288595Y-157303738D01*
X174907642Y-157589452D02*
X175050500Y-157398976D01*
X175193357Y-157589452D01*
X175812404Y-157160880D02*
X175812404Y-157398976D01*
X175574309Y-157303738D02*
X175812404Y-157398976D01*
X176050500Y-157303738D01*
X175669547Y-157589452D02*
X175812404Y-157398976D01*
X175955261Y-157589452D01*
X363117166Y-56470880D02*
X362783833Y-55994690D01*
X362545738Y-56470880D02*
X362545738Y-55470880D01*
X362926690Y-55470880D01*
X363021928Y-55518500D01*
X363069547Y-55566119D01*
X363117166Y-55661357D01*
X363117166Y-55804214D01*
X363069547Y-55899452D01*
X363021928Y-55947071D01*
X362926690Y-55994690D01*
X362545738Y-55994690D01*
X363545738Y-55947071D02*
X363879071Y-55947071D01*
X364021928Y-56470880D02*
X363545738Y-56470880D01*
X363545738Y-55470880D01*
X364021928Y-55470880D01*
X364783833Y-55947071D02*
X364450500Y-55947071D01*
X364450500Y-56470880D02*
X364450500Y-55470880D01*
X364926690Y-55470880D01*
X365450500Y-55470880D02*
X365450500Y-55708976D01*
X365212404Y-55613738D02*
X365450500Y-55708976D01*
X365688595Y-55613738D01*
X365307642Y-55899452D02*
X365450500Y-55708976D01*
X365593357Y-55899452D01*
X366212404Y-55470880D02*
X366212404Y-55708976D01*
X365974309Y-55613738D02*
X366212404Y-55708976D01*
X366450500Y-55613738D01*
X366069547Y-55899452D02*
X366212404Y-55708976D01*
X366355261Y-55899452D01*
X119117166Y-156070880D02*
X118783833Y-155594690D01*
X118545738Y-156070880D02*
X118545738Y-155070880D01*
X118926690Y-155070880D01*
X119021928Y-155118500D01*
X119069547Y-155166119D01*
X119117166Y-155261357D01*
X119117166Y-155404214D01*
X119069547Y-155499452D01*
X119021928Y-155547071D01*
X118926690Y-155594690D01*
X118545738Y-155594690D01*
X119545738Y-155547071D02*
X119879071Y-155547071D01*
X120021928Y-156070880D02*
X119545738Y-156070880D01*
X119545738Y-155070880D01*
X120021928Y-155070880D01*
X120783833Y-155547071D02*
X120450500Y-155547071D01*
X120450500Y-156070880D02*
X120450500Y-155070880D01*
X120926690Y-155070880D01*
X121450500Y-155070880D02*
X121450500Y-155308976D01*
X121212404Y-155213738D02*
X121450500Y-155308976D01*
X121688595Y-155213738D01*
X121307642Y-155499452D02*
X121450500Y-155308976D01*
X121593357Y-155499452D01*
X122212404Y-155070880D02*
X122212404Y-155308976D01*
X121974309Y-155213738D02*
X122212404Y-155308976D01*
X122450500Y-155213738D01*
X122069547Y-155499452D02*
X122212404Y-155308976D01*
X122355261Y-155499452D01*
%TO.C,K1*%
X125305404Y-78176380D02*
X125305404Y-77176380D01*
X125876833Y-78176380D02*
X125448261Y-77604952D01*
X125876833Y-77176380D02*
X125305404Y-77747809D01*
X126829214Y-78176380D02*
X126257785Y-78176380D01*
X126543500Y-78176380D02*
X126543500Y-77176380D01*
X126448261Y-77319238D01*
X126353023Y-77414476D01*
X126257785Y-77462095D01*
%TO.C,K2*%
X144355404Y-78176380D02*
X144355404Y-77176380D01*
X144926833Y-78176380D02*
X144498261Y-77604952D01*
X144926833Y-77176380D02*
X144355404Y-77747809D01*
X145307785Y-77271619D02*
X145355404Y-77224000D01*
X145450642Y-77176380D01*
X145688738Y-77176380D01*
X145783976Y-77224000D01*
X145831595Y-77271619D01*
X145879214Y-77366857D01*
X145879214Y-77462095D01*
X145831595Y-77604952D01*
X145260166Y-78176380D01*
X145879214Y-78176380D01*
%TO.C,K3*%
X163405404Y-78176380D02*
X163405404Y-77176380D01*
X163976833Y-78176380D02*
X163548261Y-77604952D01*
X163976833Y-77176380D02*
X163405404Y-77747809D01*
X164310166Y-77176380D02*
X164929214Y-77176380D01*
X164595880Y-77557333D01*
X164738738Y-77557333D01*
X164833976Y-77604952D01*
X164881595Y-77652571D01*
X164929214Y-77747809D01*
X164929214Y-77985904D01*
X164881595Y-78081142D01*
X164833976Y-78128761D01*
X164738738Y-78176380D01*
X164453023Y-78176380D01*
X164357785Y-78128761D01*
X164310166Y-78081142D01*
%TO.C,K4*%
X182455404Y-78176380D02*
X182455404Y-77176380D01*
X183026833Y-78176380D02*
X182598261Y-77604952D01*
X183026833Y-77176380D02*
X182455404Y-77747809D01*
X183883976Y-77509714D02*
X183883976Y-78176380D01*
X183645880Y-77128761D02*
X183407785Y-77843047D01*
X184026833Y-77843047D01*
%TO.C,K5*%
X201505404Y-78176380D02*
X201505404Y-77176380D01*
X202076833Y-78176380D02*
X201648261Y-77604952D01*
X202076833Y-77176380D02*
X201505404Y-77747809D01*
X202981595Y-77176380D02*
X202505404Y-77176380D01*
X202457785Y-77652571D01*
X202505404Y-77604952D01*
X202600642Y-77557333D01*
X202838738Y-77557333D01*
X202933976Y-77604952D01*
X202981595Y-77652571D01*
X203029214Y-77747809D01*
X203029214Y-77985904D01*
X202981595Y-78081142D01*
X202933976Y-78128761D01*
X202838738Y-78176380D01*
X202600642Y-78176380D01*
X202505404Y-78128761D01*
X202457785Y-78081142D01*
%TO.C,K6*%
X220555404Y-78176380D02*
X220555404Y-77176380D01*
X221126833Y-78176380D02*
X220698261Y-77604952D01*
X221126833Y-77176380D02*
X220555404Y-77747809D01*
X221983976Y-77176380D02*
X221793500Y-77176380D01*
X221698261Y-77224000D01*
X221650642Y-77271619D01*
X221555404Y-77414476D01*
X221507785Y-77604952D01*
X221507785Y-77985904D01*
X221555404Y-78081142D01*
X221603023Y-78128761D01*
X221698261Y-78176380D01*
X221888738Y-78176380D01*
X221983976Y-78128761D01*
X222031595Y-78081142D01*
X222079214Y-77985904D01*
X222079214Y-77747809D01*
X222031595Y-77652571D01*
X221983976Y-77604952D01*
X221888738Y-77557333D01*
X221698261Y-77557333D01*
X221603023Y-77604952D01*
X221555404Y-77652571D01*
X221507785Y-77747809D01*
%TO.C,K7*%
X239605404Y-78176380D02*
X239605404Y-77176380D01*
X240176833Y-78176380D02*
X239748261Y-77604952D01*
X240176833Y-77176380D02*
X239605404Y-77747809D01*
X240510166Y-77176380D02*
X241176833Y-77176380D01*
X240748261Y-78176380D01*
%TO.C,K8*%
X258655404Y-78176380D02*
X258655404Y-77176380D01*
X259226833Y-78176380D02*
X258798261Y-77604952D01*
X259226833Y-77176380D02*
X258655404Y-77747809D01*
X259798261Y-77604952D02*
X259703023Y-77557333D01*
X259655404Y-77509714D01*
X259607785Y-77414476D01*
X259607785Y-77366857D01*
X259655404Y-77271619D01*
X259703023Y-77224000D01*
X259798261Y-77176380D01*
X259988738Y-77176380D01*
X260083976Y-77224000D01*
X260131595Y-77271619D01*
X260179214Y-77366857D01*
X260179214Y-77414476D01*
X260131595Y-77509714D01*
X260083976Y-77557333D01*
X259988738Y-77604952D01*
X259798261Y-77604952D01*
X259703023Y-77652571D01*
X259655404Y-77700190D01*
X259607785Y-77795428D01*
X259607785Y-77985904D01*
X259655404Y-78081142D01*
X259703023Y-78128761D01*
X259798261Y-78176380D01*
X259988738Y-78176380D01*
X260083976Y-78128761D01*
X260131595Y-78081142D01*
X260179214Y-77985904D01*
X260179214Y-77795428D01*
X260131595Y-77700190D01*
X260083976Y-77652571D01*
X259988738Y-77604952D01*
%TO.C,K9*%
X277705404Y-78176380D02*
X277705404Y-77176380D01*
X278276833Y-78176380D02*
X277848261Y-77604952D01*
X278276833Y-77176380D02*
X277705404Y-77747809D01*
X278753023Y-78176380D02*
X278943500Y-78176380D01*
X279038738Y-78128761D01*
X279086357Y-78081142D01*
X279181595Y-77938285D01*
X279229214Y-77747809D01*
X279229214Y-77366857D01*
X279181595Y-77271619D01*
X279133976Y-77224000D01*
X279038738Y-77176380D01*
X278848261Y-77176380D01*
X278753023Y-77224000D01*
X278705404Y-77271619D01*
X278657785Y-77366857D01*
X278657785Y-77604952D01*
X278705404Y-77700190D01*
X278753023Y-77747809D01*
X278848261Y-77795428D01*
X279038738Y-77795428D01*
X279133976Y-77747809D01*
X279181595Y-77700190D01*
X279229214Y-77604952D01*
%TO.C,K10*%
X296279214Y-78176380D02*
X296279214Y-77176380D01*
X296850642Y-78176380D02*
X296422071Y-77604952D01*
X296850642Y-77176380D02*
X296279214Y-77747809D01*
X297803023Y-78176380D02*
X297231595Y-78176380D01*
X297517309Y-78176380D02*
X297517309Y-77176380D01*
X297422071Y-77319238D01*
X297326833Y-77414476D01*
X297231595Y-77462095D01*
X298422071Y-77176380D02*
X298517309Y-77176380D01*
X298612547Y-77224000D01*
X298660166Y-77271619D01*
X298707785Y-77366857D01*
X298755404Y-77557333D01*
X298755404Y-77795428D01*
X298707785Y-77985904D01*
X298660166Y-78081142D01*
X298612547Y-78128761D01*
X298517309Y-78176380D01*
X298422071Y-78176380D01*
X298326833Y-78128761D01*
X298279214Y-78081142D01*
X298231595Y-77985904D01*
X298183976Y-77795428D01*
X298183976Y-77557333D01*
X298231595Y-77366857D01*
X298279214Y-77271619D01*
X298326833Y-77224000D01*
X298422071Y-77176380D01*
%TO.C,K11*%
X315329214Y-78176380D02*
X315329214Y-77176380D01*
X315900642Y-78176380D02*
X315472071Y-77604952D01*
X315900642Y-77176380D02*
X315329214Y-77747809D01*
X316853023Y-78176380D02*
X316281595Y-78176380D01*
X316567309Y-78176380D02*
X316567309Y-77176380D01*
X316472071Y-77319238D01*
X316376833Y-77414476D01*
X316281595Y-77462095D01*
X317805404Y-78176380D02*
X317233976Y-78176380D01*
X317519690Y-78176380D02*
X317519690Y-77176380D01*
X317424452Y-77319238D01*
X317329214Y-77414476D01*
X317233976Y-77462095D01*
%TO.C,K12*%
X334379214Y-78176380D02*
X334379214Y-77176380D01*
X334950642Y-78176380D02*
X334522071Y-77604952D01*
X334950642Y-77176380D02*
X334379214Y-77747809D01*
X335903023Y-78176380D02*
X335331595Y-78176380D01*
X335617309Y-78176380D02*
X335617309Y-77176380D01*
X335522071Y-77319238D01*
X335426833Y-77414476D01*
X335331595Y-77462095D01*
X336283976Y-77271619D02*
X336331595Y-77224000D01*
X336426833Y-77176380D01*
X336664928Y-77176380D01*
X336760166Y-77224000D01*
X336807785Y-77271619D01*
X336855404Y-77366857D01*
X336855404Y-77462095D01*
X336807785Y-77604952D01*
X336236357Y-78176380D01*
X336855404Y-78176380D01*
%TO.C,K13*%
X353429214Y-78176380D02*
X353429214Y-77176380D01*
X354000642Y-78176380D02*
X353572071Y-77604952D01*
X354000642Y-77176380D02*
X353429214Y-77747809D01*
X354953023Y-78176380D02*
X354381595Y-78176380D01*
X354667309Y-78176380D02*
X354667309Y-77176380D01*
X354572071Y-77319238D01*
X354476833Y-77414476D01*
X354381595Y-77462095D01*
X355286357Y-77176380D02*
X355905404Y-77176380D01*
X355572071Y-77557333D01*
X355714928Y-77557333D01*
X355810166Y-77604952D01*
X355857785Y-77652571D01*
X355905404Y-77747809D01*
X355905404Y-77985904D01*
X355857785Y-78081142D01*
X355810166Y-78128761D01*
X355714928Y-78176380D01*
X355429214Y-78176380D01*
X355333976Y-78128761D01*
X355286357Y-78081142D01*
%TO.C,K14*%
X115304214Y-97226380D02*
X115304214Y-96226380D01*
X115875642Y-97226380D02*
X115447071Y-96654952D01*
X115875642Y-96226380D02*
X115304214Y-96797809D01*
X116828023Y-97226380D02*
X116256595Y-97226380D01*
X116542309Y-97226380D02*
X116542309Y-96226380D01*
X116447071Y-96369238D01*
X116351833Y-96464476D01*
X116256595Y-96512095D01*
X117685166Y-96559714D02*
X117685166Y-97226380D01*
X117447071Y-96178761D02*
X117208976Y-96893047D01*
X117828023Y-96893047D01*
%TO.C,K15*%
X134354214Y-97226380D02*
X134354214Y-96226380D01*
X134925642Y-97226380D02*
X134497071Y-96654952D01*
X134925642Y-96226380D02*
X134354214Y-96797809D01*
X135878023Y-97226380D02*
X135306595Y-97226380D01*
X135592309Y-97226380D02*
X135592309Y-96226380D01*
X135497071Y-96369238D01*
X135401833Y-96464476D01*
X135306595Y-96512095D01*
X136782785Y-96226380D02*
X136306595Y-96226380D01*
X136258976Y-96702571D01*
X136306595Y-96654952D01*
X136401833Y-96607333D01*
X136639928Y-96607333D01*
X136735166Y-96654952D01*
X136782785Y-96702571D01*
X136830404Y-96797809D01*
X136830404Y-97035904D01*
X136782785Y-97131142D01*
X136735166Y-97178761D01*
X136639928Y-97226380D01*
X136401833Y-97226380D01*
X136306595Y-97178761D01*
X136258976Y-97131142D01*
%TO.C,K16*%
X153404214Y-97226380D02*
X153404214Y-96226380D01*
X153975642Y-97226380D02*
X153547071Y-96654952D01*
X153975642Y-96226380D02*
X153404214Y-96797809D01*
X154928023Y-97226380D02*
X154356595Y-97226380D01*
X154642309Y-97226380D02*
X154642309Y-96226380D01*
X154547071Y-96369238D01*
X154451833Y-96464476D01*
X154356595Y-96512095D01*
X155785166Y-96226380D02*
X155594690Y-96226380D01*
X155499452Y-96274000D01*
X155451833Y-96321619D01*
X155356595Y-96464476D01*
X155308976Y-96654952D01*
X155308976Y-97035904D01*
X155356595Y-97131142D01*
X155404214Y-97178761D01*
X155499452Y-97226380D01*
X155689928Y-97226380D01*
X155785166Y-97178761D01*
X155832785Y-97131142D01*
X155880404Y-97035904D01*
X155880404Y-96797809D01*
X155832785Y-96702571D01*
X155785166Y-96654952D01*
X155689928Y-96607333D01*
X155499452Y-96607333D01*
X155404214Y-96654952D01*
X155356595Y-96702571D01*
X155308976Y-96797809D01*
%TO.C,K17*%
X172454214Y-97226380D02*
X172454214Y-96226380D01*
X173025642Y-97226380D02*
X172597071Y-96654952D01*
X173025642Y-96226380D02*
X172454214Y-96797809D01*
X173978023Y-97226380D02*
X173406595Y-97226380D01*
X173692309Y-97226380D02*
X173692309Y-96226380D01*
X173597071Y-96369238D01*
X173501833Y-96464476D01*
X173406595Y-96512095D01*
X174311357Y-96226380D02*
X174978023Y-96226380D01*
X174549452Y-97226380D01*
%TO.C,K18*%
X191504214Y-97226380D02*
X191504214Y-96226380D01*
X192075642Y-97226380D02*
X191647071Y-96654952D01*
X192075642Y-96226380D02*
X191504214Y-96797809D01*
X193028023Y-97226380D02*
X192456595Y-97226380D01*
X192742309Y-97226380D02*
X192742309Y-96226380D01*
X192647071Y-96369238D01*
X192551833Y-96464476D01*
X192456595Y-96512095D01*
X193599452Y-96654952D02*
X193504214Y-96607333D01*
X193456595Y-96559714D01*
X193408976Y-96464476D01*
X193408976Y-96416857D01*
X193456595Y-96321619D01*
X193504214Y-96274000D01*
X193599452Y-96226380D01*
X193789928Y-96226380D01*
X193885166Y-96274000D01*
X193932785Y-96321619D01*
X193980404Y-96416857D01*
X193980404Y-96464476D01*
X193932785Y-96559714D01*
X193885166Y-96607333D01*
X193789928Y-96654952D01*
X193599452Y-96654952D01*
X193504214Y-96702571D01*
X193456595Y-96750190D01*
X193408976Y-96845428D01*
X193408976Y-97035904D01*
X193456595Y-97131142D01*
X193504214Y-97178761D01*
X193599452Y-97226380D01*
X193789928Y-97226380D01*
X193885166Y-97178761D01*
X193932785Y-97131142D01*
X193980404Y-97035904D01*
X193980404Y-96845428D01*
X193932785Y-96750190D01*
X193885166Y-96702571D01*
X193789928Y-96654952D01*
%TO.C,K19*%
X210554214Y-97226380D02*
X210554214Y-96226380D01*
X211125642Y-97226380D02*
X210697071Y-96654952D01*
X211125642Y-96226380D02*
X210554214Y-96797809D01*
X212078023Y-97226380D02*
X211506595Y-97226380D01*
X211792309Y-97226380D02*
X211792309Y-96226380D01*
X211697071Y-96369238D01*
X211601833Y-96464476D01*
X211506595Y-96512095D01*
X212554214Y-97226380D02*
X212744690Y-97226380D01*
X212839928Y-97178761D01*
X212887547Y-97131142D01*
X212982785Y-96988285D01*
X213030404Y-96797809D01*
X213030404Y-96416857D01*
X212982785Y-96321619D01*
X212935166Y-96274000D01*
X212839928Y-96226380D01*
X212649452Y-96226380D01*
X212554214Y-96274000D01*
X212506595Y-96321619D01*
X212458976Y-96416857D01*
X212458976Y-96654952D01*
X212506595Y-96750190D01*
X212554214Y-96797809D01*
X212649452Y-96845428D01*
X212839928Y-96845428D01*
X212935166Y-96797809D01*
X212982785Y-96750190D01*
X213030404Y-96654952D01*
%TO.C,K20*%
X229604214Y-97226380D02*
X229604214Y-96226380D01*
X230175642Y-97226380D02*
X229747071Y-96654952D01*
X230175642Y-96226380D02*
X229604214Y-96797809D01*
X230556595Y-96321619D02*
X230604214Y-96274000D01*
X230699452Y-96226380D01*
X230937547Y-96226380D01*
X231032785Y-96274000D01*
X231080404Y-96321619D01*
X231128023Y-96416857D01*
X231128023Y-96512095D01*
X231080404Y-96654952D01*
X230508976Y-97226380D01*
X231128023Y-97226380D01*
X231747071Y-96226380D02*
X231842309Y-96226380D01*
X231937547Y-96274000D01*
X231985166Y-96321619D01*
X232032785Y-96416857D01*
X232080404Y-96607333D01*
X232080404Y-96845428D01*
X232032785Y-97035904D01*
X231985166Y-97131142D01*
X231937547Y-97178761D01*
X231842309Y-97226380D01*
X231747071Y-97226380D01*
X231651833Y-97178761D01*
X231604214Y-97131142D01*
X231556595Y-97035904D01*
X231508976Y-96845428D01*
X231508976Y-96607333D01*
X231556595Y-96416857D01*
X231604214Y-96321619D01*
X231651833Y-96274000D01*
X231747071Y-96226380D01*
%TO.C,K21*%
X248654214Y-97226380D02*
X248654214Y-96226380D01*
X249225642Y-97226380D02*
X248797071Y-96654952D01*
X249225642Y-96226380D02*
X248654214Y-96797809D01*
X249606595Y-96321619D02*
X249654214Y-96274000D01*
X249749452Y-96226380D01*
X249987547Y-96226380D01*
X250082785Y-96274000D01*
X250130404Y-96321619D01*
X250178023Y-96416857D01*
X250178023Y-96512095D01*
X250130404Y-96654952D01*
X249558976Y-97226380D01*
X250178023Y-97226380D01*
X251130404Y-97226380D02*
X250558976Y-97226380D01*
X250844690Y-97226380D02*
X250844690Y-96226380D01*
X250749452Y-96369238D01*
X250654214Y-96464476D01*
X250558976Y-96512095D01*
%TO.C,K22*%
X267704214Y-97226380D02*
X267704214Y-96226380D01*
X268275642Y-97226380D02*
X267847071Y-96654952D01*
X268275642Y-96226380D02*
X267704214Y-96797809D01*
X268656595Y-96321619D02*
X268704214Y-96274000D01*
X268799452Y-96226380D01*
X269037547Y-96226380D01*
X269132785Y-96274000D01*
X269180404Y-96321619D01*
X269228023Y-96416857D01*
X269228023Y-96512095D01*
X269180404Y-96654952D01*
X268608976Y-97226380D01*
X269228023Y-97226380D01*
X269608976Y-96321619D02*
X269656595Y-96274000D01*
X269751833Y-96226380D01*
X269989928Y-96226380D01*
X270085166Y-96274000D01*
X270132785Y-96321619D01*
X270180404Y-96416857D01*
X270180404Y-96512095D01*
X270132785Y-96654952D01*
X269561357Y-97226380D01*
X270180404Y-97226380D01*
%TO.C,K23*%
X286754214Y-97226380D02*
X286754214Y-96226380D01*
X287325642Y-97226380D02*
X286897071Y-96654952D01*
X287325642Y-96226380D02*
X286754214Y-96797809D01*
X287706595Y-96321619D02*
X287754214Y-96274000D01*
X287849452Y-96226380D01*
X288087547Y-96226380D01*
X288182785Y-96274000D01*
X288230404Y-96321619D01*
X288278023Y-96416857D01*
X288278023Y-96512095D01*
X288230404Y-96654952D01*
X287658976Y-97226380D01*
X288278023Y-97226380D01*
X288611357Y-96226380D02*
X289230404Y-96226380D01*
X288897071Y-96607333D01*
X289039928Y-96607333D01*
X289135166Y-96654952D01*
X289182785Y-96702571D01*
X289230404Y-96797809D01*
X289230404Y-97035904D01*
X289182785Y-97131142D01*
X289135166Y-97178761D01*
X289039928Y-97226380D01*
X288754214Y-97226380D01*
X288658976Y-97178761D01*
X288611357Y-97131142D01*
%TO.C,K24*%
X305804214Y-97226380D02*
X305804214Y-96226380D01*
X306375642Y-97226380D02*
X305947071Y-96654952D01*
X306375642Y-96226380D02*
X305804214Y-96797809D01*
X306756595Y-96321619D02*
X306804214Y-96274000D01*
X306899452Y-96226380D01*
X307137547Y-96226380D01*
X307232785Y-96274000D01*
X307280404Y-96321619D01*
X307328023Y-96416857D01*
X307328023Y-96512095D01*
X307280404Y-96654952D01*
X306708976Y-97226380D01*
X307328023Y-97226380D01*
X308185166Y-96559714D02*
X308185166Y-97226380D01*
X307947071Y-96178761D02*
X307708976Y-96893047D01*
X308328023Y-96893047D01*
%TO.C,K25*%
X324854214Y-97226380D02*
X324854214Y-96226380D01*
X325425642Y-97226380D02*
X324997071Y-96654952D01*
X325425642Y-96226380D02*
X324854214Y-96797809D01*
X325806595Y-96321619D02*
X325854214Y-96274000D01*
X325949452Y-96226380D01*
X326187547Y-96226380D01*
X326282785Y-96274000D01*
X326330404Y-96321619D01*
X326378023Y-96416857D01*
X326378023Y-96512095D01*
X326330404Y-96654952D01*
X325758976Y-97226380D01*
X326378023Y-97226380D01*
X327282785Y-96226380D02*
X326806595Y-96226380D01*
X326758976Y-96702571D01*
X326806595Y-96654952D01*
X326901833Y-96607333D01*
X327139928Y-96607333D01*
X327235166Y-96654952D01*
X327282785Y-96702571D01*
X327330404Y-96797809D01*
X327330404Y-97035904D01*
X327282785Y-97131142D01*
X327235166Y-97178761D01*
X327139928Y-97226380D01*
X326901833Y-97226380D01*
X326806595Y-97178761D01*
X326758976Y-97131142D01*
%TO.C,K26*%
X343904214Y-97226380D02*
X343904214Y-96226380D01*
X344475642Y-97226380D02*
X344047071Y-96654952D01*
X344475642Y-96226380D02*
X343904214Y-96797809D01*
X344856595Y-96321619D02*
X344904214Y-96274000D01*
X344999452Y-96226380D01*
X345237547Y-96226380D01*
X345332785Y-96274000D01*
X345380404Y-96321619D01*
X345428023Y-96416857D01*
X345428023Y-96512095D01*
X345380404Y-96654952D01*
X344808976Y-97226380D01*
X345428023Y-97226380D01*
X346285166Y-96226380D02*
X346094690Y-96226380D01*
X345999452Y-96274000D01*
X345951833Y-96321619D01*
X345856595Y-96464476D01*
X345808976Y-96654952D01*
X345808976Y-97035904D01*
X345856595Y-97131142D01*
X345904214Y-97178761D01*
X345999452Y-97226380D01*
X346189928Y-97226380D01*
X346285166Y-97178761D01*
X346332785Y-97131142D01*
X346380404Y-97035904D01*
X346380404Y-96797809D01*
X346332785Y-96702571D01*
X346285166Y-96654952D01*
X346189928Y-96607333D01*
X345999452Y-96607333D01*
X345904214Y-96654952D01*
X345856595Y-96702571D01*
X345808976Y-96797809D01*
%TO.C,K27*%
X120066714Y-116276380D02*
X120066714Y-115276380D01*
X120638142Y-116276380D02*
X120209571Y-115704952D01*
X120638142Y-115276380D02*
X120066714Y-115847809D01*
X121019095Y-115371619D02*
X121066714Y-115324000D01*
X121161952Y-115276380D01*
X121400047Y-115276380D01*
X121495285Y-115324000D01*
X121542904Y-115371619D01*
X121590523Y-115466857D01*
X121590523Y-115562095D01*
X121542904Y-115704952D01*
X120971476Y-116276380D01*
X121590523Y-116276380D01*
X121923857Y-115276380D02*
X122590523Y-115276380D01*
X122161952Y-116276380D01*
%TO.C,K28*%
X139116714Y-116276380D02*
X139116714Y-115276380D01*
X139688142Y-116276380D02*
X139259571Y-115704952D01*
X139688142Y-115276380D02*
X139116714Y-115847809D01*
X140069095Y-115371619D02*
X140116714Y-115324000D01*
X140211952Y-115276380D01*
X140450047Y-115276380D01*
X140545285Y-115324000D01*
X140592904Y-115371619D01*
X140640523Y-115466857D01*
X140640523Y-115562095D01*
X140592904Y-115704952D01*
X140021476Y-116276380D01*
X140640523Y-116276380D01*
X141211952Y-115704952D02*
X141116714Y-115657333D01*
X141069095Y-115609714D01*
X141021476Y-115514476D01*
X141021476Y-115466857D01*
X141069095Y-115371619D01*
X141116714Y-115324000D01*
X141211952Y-115276380D01*
X141402428Y-115276380D01*
X141497666Y-115324000D01*
X141545285Y-115371619D01*
X141592904Y-115466857D01*
X141592904Y-115514476D01*
X141545285Y-115609714D01*
X141497666Y-115657333D01*
X141402428Y-115704952D01*
X141211952Y-115704952D01*
X141116714Y-115752571D01*
X141069095Y-115800190D01*
X141021476Y-115895428D01*
X141021476Y-116085904D01*
X141069095Y-116181142D01*
X141116714Y-116228761D01*
X141211952Y-116276380D01*
X141402428Y-116276380D01*
X141497666Y-116228761D01*
X141545285Y-116181142D01*
X141592904Y-116085904D01*
X141592904Y-115895428D01*
X141545285Y-115800190D01*
X141497666Y-115752571D01*
X141402428Y-115704952D01*
%TO.C,K29*%
X158166714Y-116276380D02*
X158166714Y-115276380D01*
X158738142Y-116276380D02*
X158309571Y-115704952D01*
X158738142Y-115276380D02*
X158166714Y-115847809D01*
X159119095Y-115371619D02*
X159166714Y-115324000D01*
X159261952Y-115276380D01*
X159500047Y-115276380D01*
X159595285Y-115324000D01*
X159642904Y-115371619D01*
X159690523Y-115466857D01*
X159690523Y-115562095D01*
X159642904Y-115704952D01*
X159071476Y-116276380D01*
X159690523Y-116276380D01*
X160166714Y-116276380D02*
X160357190Y-116276380D01*
X160452428Y-116228761D01*
X160500047Y-116181142D01*
X160595285Y-116038285D01*
X160642904Y-115847809D01*
X160642904Y-115466857D01*
X160595285Y-115371619D01*
X160547666Y-115324000D01*
X160452428Y-115276380D01*
X160261952Y-115276380D01*
X160166714Y-115324000D01*
X160119095Y-115371619D01*
X160071476Y-115466857D01*
X160071476Y-115704952D01*
X160119095Y-115800190D01*
X160166714Y-115847809D01*
X160261952Y-115895428D01*
X160452428Y-115895428D01*
X160547666Y-115847809D01*
X160595285Y-115800190D01*
X160642904Y-115704952D01*
%TO.C,K30*%
X177216714Y-116276380D02*
X177216714Y-115276380D01*
X177788142Y-116276380D02*
X177359571Y-115704952D01*
X177788142Y-115276380D02*
X177216714Y-115847809D01*
X178121476Y-115276380D02*
X178740523Y-115276380D01*
X178407190Y-115657333D01*
X178550047Y-115657333D01*
X178645285Y-115704952D01*
X178692904Y-115752571D01*
X178740523Y-115847809D01*
X178740523Y-116085904D01*
X178692904Y-116181142D01*
X178645285Y-116228761D01*
X178550047Y-116276380D01*
X178264333Y-116276380D01*
X178169095Y-116228761D01*
X178121476Y-116181142D01*
X179359571Y-115276380D02*
X179454809Y-115276380D01*
X179550047Y-115324000D01*
X179597666Y-115371619D01*
X179645285Y-115466857D01*
X179692904Y-115657333D01*
X179692904Y-115895428D01*
X179645285Y-116085904D01*
X179597666Y-116181142D01*
X179550047Y-116228761D01*
X179454809Y-116276380D01*
X179359571Y-116276380D01*
X179264333Y-116228761D01*
X179216714Y-116181142D01*
X179169095Y-116085904D01*
X179121476Y-115895428D01*
X179121476Y-115657333D01*
X179169095Y-115466857D01*
X179216714Y-115371619D01*
X179264333Y-115324000D01*
X179359571Y-115276380D01*
%TO.C,K31*%
X196266714Y-116276380D02*
X196266714Y-115276380D01*
X196838142Y-116276380D02*
X196409571Y-115704952D01*
X196838142Y-115276380D02*
X196266714Y-115847809D01*
X197171476Y-115276380D02*
X197790523Y-115276380D01*
X197457190Y-115657333D01*
X197600047Y-115657333D01*
X197695285Y-115704952D01*
X197742904Y-115752571D01*
X197790523Y-115847809D01*
X197790523Y-116085904D01*
X197742904Y-116181142D01*
X197695285Y-116228761D01*
X197600047Y-116276380D01*
X197314333Y-116276380D01*
X197219095Y-116228761D01*
X197171476Y-116181142D01*
X198742904Y-116276380D02*
X198171476Y-116276380D01*
X198457190Y-116276380D02*
X198457190Y-115276380D01*
X198361952Y-115419238D01*
X198266714Y-115514476D01*
X198171476Y-115562095D01*
%TO.C,K32*%
X215316714Y-116276380D02*
X215316714Y-115276380D01*
X215888142Y-116276380D02*
X215459571Y-115704952D01*
X215888142Y-115276380D02*
X215316714Y-115847809D01*
X216221476Y-115276380D02*
X216840523Y-115276380D01*
X216507190Y-115657333D01*
X216650047Y-115657333D01*
X216745285Y-115704952D01*
X216792904Y-115752571D01*
X216840523Y-115847809D01*
X216840523Y-116085904D01*
X216792904Y-116181142D01*
X216745285Y-116228761D01*
X216650047Y-116276380D01*
X216364333Y-116276380D01*
X216269095Y-116228761D01*
X216221476Y-116181142D01*
X217221476Y-115371619D02*
X217269095Y-115324000D01*
X217364333Y-115276380D01*
X217602428Y-115276380D01*
X217697666Y-115324000D01*
X217745285Y-115371619D01*
X217792904Y-115466857D01*
X217792904Y-115562095D01*
X217745285Y-115704952D01*
X217173857Y-116276380D01*
X217792904Y-116276380D01*
%TO.C,K33*%
X234366714Y-116276380D02*
X234366714Y-115276380D01*
X234938142Y-116276380D02*
X234509571Y-115704952D01*
X234938142Y-115276380D02*
X234366714Y-115847809D01*
X235271476Y-115276380D02*
X235890523Y-115276380D01*
X235557190Y-115657333D01*
X235700047Y-115657333D01*
X235795285Y-115704952D01*
X235842904Y-115752571D01*
X235890523Y-115847809D01*
X235890523Y-116085904D01*
X235842904Y-116181142D01*
X235795285Y-116228761D01*
X235700047Y-116276380D01*
X235414333Y-116276380D01*
X235319095Y-116228761D01*
X235271476Y-116181142D01*
X236223857Y-115276380D02*
X236842904Y-115276380D01*
X236509571Y-115657333D01*
X236652428Y-115657333D01*
X236747666Y-115704952D01*
X236795285Y-115752571D01*
X236842904Y-115847809D01*
X236842904Y-116085904D01*
X236795285Y-116181142D01*
X236747666Y-116228761D01*
X236652428Y-116276380D01*
X236366714Y-116276380D01*
X236271476Y-116228761D01*
X236223857Y-116181142D01*
%TO.C,K34*%
X253416714Y-116276380D02*
X253416714Y-115276380D01*
X253988142Y-116276380D02*
X253559571Y-115704952D01*
X253988142Y-115276380D02*
X253416714Y-115847809D01*
X254321476Y-115276380D02*
X254940523Y-115276380D01*
X254607190Y-115657333D01*
X254750047Y-115657333D01*
X254845285Y-115704952D01*
X254892904Y-115752571D01*
X254940523Y-115847809D01*
X254940523Y-116085904D01*
X254892904Y-116181142D01*
X254845285Y-116228761D01*
X254750047Y-116276380D01*
X254464333Y-116276380D01*
X254369095Y-116228761D01*
X254321476Y-116181142D01*
X255797666Y-115609714D02*
X255797666Y-116276380D01*
X255559571Y-115228761D02*
X255321476Y-115943047D01*
X255940523Y-115943047D01*
%TO.C,K35*%
X272466714Y-116276380D02*
X272466714Y-115276380D01*
X273038142Y-116276380D02*
X272609571Y-115704952D01*
X273038142Y-115276380D02*
X272466714Y-115847809D01*
X273371476Y-115276380D02*
X273990523Y-115276380D01*
X273657190Y-115657333D01*
X273800047Y-115657333D01*
X273895285Y-115704952D01*
X273942904Y-115752571D01*
X273990523Y-115847809D01*
X273990523Y-116085904D01*
X273942904Y-116181142D01*
X273895285Y-116228761D01*
X273800047Y-116276380D01*
X273514333Y-116276380D01*
X273419095Y-116228761D01*
X273371476Y-116181142D01*
X274895285Y-115276380D02*
X274419095Y-115276380D01*
X274371476Y-115752571D01*
X274419095Y-115704952D01*
X274514333Y-115657333D01*
X274752428Y-115657333D01*
X274847666Y-115704952D01*
X274895285Y-115752571D01*
X274942904Y-115847809D01*
X274942904Y-116085904D01*
X274895285Y-116181142D01*
X274847666Y-116228761D01*
X274752428Y-116276380D01*
X274514333Y-116276380D01*
X274419095Y-116228761D01*
X274371476Y-116181142D01*
%TO.C,K36*%
X291516714Y-116276380D02*
X291516714Y-115276380D01*
X292088142Y-116276380D02*
X291659571Y-115704952D01*
X292088142Y-115276380D02*
X291516714Y-115847809D01*
X292421476Y-115276380D02*
X293040523Y-115276380D01*
X292707190Y-115657333D01*
X292850047Y-115657333D01*
X292945285Y-115704952D01*
X292992904Y-115752571D01*
X293040523Y-115847809D01*
X293040523Y-116085904D01*
X292992904Y-116181142D01*
X292945285Y-116228761D01*
X292850047Y-116276380D01*
X292564333Y-116276380D01*
X292469095Y-116228761D01*
X292421476Y-116181142D01*
X293897666Y-115276380D02*
X293707190Y-115276380D01*
X293611952Y-115324000D01*
X293564333Y-115371619D01*
X293469095Y-115514476D01*
X293421476Y-115704952D01*
X293421476Y-116085904D01*
X293469095Y-116181142D01*
X293516714Y-116228761D01*
X293611952Y-116276380D01*
X293802428Y-116276380D01*
X293897666Y-116228761D01*
X293945285Y-116181142D01*
X293992904Y-116085904D01*
X293992904Y-115847809D01*
X293945285Y-115752571D01*
X293897666Y-115704952D01*
X293802428Y-115657333D01*
X293611952Y-115657333D01*
X293516714Y-115704952D01*
X293469095Y-115752571D01*
X293421476Y-115847809D01*
%TO.C,K37*%
X310566714Y-116276380D02*
X310566714Y-115276380D01*
X311138142Y-116276380D02*
X310709571Y-115704952D01*
X311138142Y-115276380D02*
X310566714Y-115847809D01*
X311471476Y-115276380D02*
X312090523Y-115276380D01*
X311757190Y-115657333D01*
X311900047Y-115657333D01*
X311995285Y-115704952D01*
X312042904Y-115752571D01*
X312090523Y-115847809D01*
X312090523Y-116085904D01*
X312042904Y-116181142D01*
X311995285Y-116228761D01*
X311900047Y-116276380D01*
X311614333Y-116276380D01*
X311519095Y-116228761D01*
X311471476Y-116181142D01*
X312423857Y-115276380D02*
X313090523Y-115276380D01*
X312661952Y-116276380D01*
%TO.C,K38*%
X329616714Y-116276380D02*
X329616714Y-115276380D01*
X330188142Y-116276380D02*
X329759571Y-115704952D01*
X330188142Y-115276380D02*
X329616714Y-115847809D01*
X330521476Y-115276380D02*
X331140523Y-115276380D01*
X330807190Y-115657333D01*
X330950047Y-115657333D01*
X331045285Y-115704952D01*
X331092904Y-115752571D01*
X331140523Y-115847809D01*
X331140523Y-116085904D01*
X331092904Y-116181142D01*
X331045285Y-116228761D01*
X330950047Y-116276380D01*
X330664333Y-116276380D01*
X330569095Y-116228761D01*
X330521476Y-116181142D01*
X331711952Y-115704952D02*
X331616714Y-115657333D01*
X331569095Y-115609714D01*
X331521476Y-115514476D01*
X331521476Y-115466857D01*
X331569095Y-115371619D01*
X331616714Y-115324000D01*
X331711952Y-115276380D01*
X331902428Y-115276380D01*
X331997666Y-115324000D01*
X332045285Y-115371619D01*
X332092904Y-115466857D01*
X332092904Y-115514476D01*
X332045285Y-115609714D01*
X331997666Y-115657333D01*
X331902428Y-115704952D01*
X331711952Y-115704952D01*
X331616714Y-115752571D01*
X331569095Y-115800190D01*
X331521476Y-115895428D01*
X331521476Y-116085904D01*
X331569095Y-116181142D01*
X331616714Y-116228761D01*
X331711952Y-116276380D01*
X331902428Y-116276380D01*
X331997666Y-116228761D01*
X332045285Y-116181142D01*
X332092904Y-116085904D01*
X332092904Y-115895428D01*
X332045285Y-115800190D01*
X331997666Y-115752571D01*
X331902428Y-115704952D01*
%TO.C,K39*%
X348666714Y-116276380D02*
X348666714Y-115276380D01*
X349238142Y-116276380D02*
X348809571Y-115704952D01*
X349238142Y-115276380D02*
X348666714Y-115847809D01*
X349571476Y-115276380D02*
X350190523Y-115276380D01*
X349857190Y-115657333D01*
X350000047Y-115657333D01*
X350095285Y-115704952D01*
X350142904Y-115752571D01*
X350190523Y-115847809D01*
X350190523Y-116085904D01*
X350142904Y-116181142D01*
X350095285Y-116228761D01*
X350000047Y-116276380D01*
X349714333Y-116276380D01*
X349619095Y-116228761D01*
X349571476Y-116181142D01*
X350666714Y-116276380D02*
X350857190Y-116276380D01*
X350952428Y-116228761D01*
X351000047Y-116181142D01*
X351095285Y-116038285D01*
X351142904Y-115847809D01*
X351142904Y-115466857D01*
X351095285Y-115371619D01*
X351047666Y-115324000D01*
X350952428Y-115276380D01*
X350761952Y-115276380D01*
X350666714Y-115324000D01*
X350619095Y-115371619D01*
X350571476Y-115466857D01*
X350571476Y-115704952D01*
X350619095Y-115800190D01*
X350666714Y-115847809D01*
X350761952Y-115895428D01*
X350952428Y-115895428D01*
X351047666Y-115847809D01*
X351095285Y-115800190D01*
X351142904Y-115704952D01*
%TO.C,K40*%
X129591714Y-135326380D02*
X129591714Y-134326380D01*
X130163142Y-135326380D02*
X129734571Y-134754952D01*
X130163142Y-134326380D02*
X129591714Y-134897809D01*
X131020285Y-134659714D02*
X131020285Y-135326380D01*
X130782190Y-134278761D02*
X130544095Y-134993047D01*
X131163142Y-134993047D01*
X131734571Y-134326380D02*
X131829809Y-134326380D01*
X131925047Y-134374000D01*
X131972666Y-134421619D01*
X132020285Y-134516857D01*
X132067904Y-134707333D01*
X132067904Y-134945428D01*
X132020285Y-135135904D01*
X131972666Y-135231142D01*
X131925047Y-135278761D01*
X131829809Y-135326380D01*
X131734571Y-135326380D01*
X131639333Y-135278761D01*
X131591714Y-135231142D01*
X131544095Y-135135904D01*
X131496476Y-134945428D01*
X131496476Y-134707333D01*
X131544095Y-134516857D01*
X131591714Y-134421619D01*
X131639333Y-134374000D01*
X131734571Y-134326380D01*
%TO.C,K41*%
X148641714Y-135326380D02*
X148641714Y-134326380D01*
X149213142Y-135326380D02*
X148784571Y-134754952D01*
X149213142Y-134326380D02*
X148641714Y-134897809D01*
X150070285Y-134659714D02*
X150070285Y-135326380D01*
X149832190Y-134278761D02*
X149594095Y-134993047D01*
X150213142Y-134993047D01*
X151117904Y-135326380D02*
X150546476Y-135326380D01*
X150832190Y-135326380D02*
X150832190Y-134326380D01*
X150736952Y-134469238D01*
X150641714Y-134564476D01*
X150546476Y-134612095D01*
%TO.C,K42*%
X167691714Y-135326380D02*
X167691714Y-134326380D01*
X168263142Y-135326380D02*
X167834571Y-134754952D01*
X168263142Y-134326380D02*
X167691714Y-134897809D01*
X169120285Y-134659714D02*
X169120285Y-135326380D01*
X168882190Y-134278761D02*
X168644095Y-134993047D01*
X169263142Y-134993047D01*
X169596476Y-134421619D02*
X169644095Y-134374000D01*
X169739333Y-134326380D01*
X169977428Y-134326380D01*
X170072666Y-134374000D01*
X170120285Y-134421619D01*
X170167904Y-134516857D01*
X170167904Y-134612095D01*
X170120285Y-134754952D01*
X169548857Y-135326380D01*
X170167904Y-135326380D01*
%TO.C,K43*%
X186741714Y-135326380D02*
X186741714Y-134326380D01*
X187313142Y-135326380D02*
X186884571Y-134754952D01*
X187313142Y-134326380D02*
X186741714Y-134897809D01*
X188170285Y-134659714D02*
X188170285Y-135326380D01*
X187932190Y-134278761D02*
X187694095Y-134993047D01*
X188313142Y-134993047D01*
X188598857Y-134326380D02*
X189217904Y-134326380D01*
X188884571Y-134707333D01*
X189027428Y-134707333D01*
X189122666Y-134754952D01*
X189170285Y-134802571D01*
X189217904Y-134897809D01*
X189217904Y-135135904D01*
X189170285Y-135231142D01*
X189122666Y-135278761D01*
X189027428Y-135326380D01*
X188741714Y-135326380D01*
X188646476Y-135278761D01*
X188598857Y-135231142D01*
%TO.C,K44*%
X205791714Y-135326380D02*
X205791714Y-134326380D01*
X206363142Y-135326380D02*
X205934571Y-134754952D01*
X206363142Y-134326380D02*
X205791714Y-134897809D01*
X207220285Y-134659714D02*
X207220285Y-135326380D01*
X206982190Y-134278761D02*
X206744095Y-134993047D01*
X207363142Y-134993047D01*
X208172666Y-134659714D02*
X208172666Y-135326380D01*
X207934571Y-134278761D02*
X207696476Y-134993047D01*
X208315523Y-134993047D01*
%TO.C,K45*%
X224841714Y-135326380D02*
X224841714Y-134326380D01*
X225413142Y-135326380D02*
X224984571Y-134754952D01*
X225413142Y-134326380D02*
X224841714Y-134897809D01*
X226270285Y-134659714D02*
X226270285Y-135326380D01*
X226032190Y-134278761D02*
X225794095Y-134993047D01*
X226413142Y-134993047D01*
X227270285Y-134326380D02*
X226794095Y-134326380D01*
X226746476Y-134802571D01*
X226794095Y-134754952D01*
X226889333Y-134707333D01*
X227127428Y-134707333D01*
X227222666Y-134754952D01*
X227270285Y-134802571D01*
X227317904Y-134897809D01*
X227317904Y-135135904D01*
X227270285Y-135231142D01*
X227222666Y-135278761D01*
X227127428Y-135326380D01*
X226889333Y-135326380D01*
X226794095Y-135278761D01*
X226746476Y-135231142D01*
%TO.C,K46*%
X234366714Y-154376380D02*
X234366714Y-153376380D01*
X234938142Y-154376380D02*
X234509571Y-153804952D01*
X234938142Y-153376380D02*
X234366714Y-153947809D01*
X235795285Y-153709714D02*
X235795285Y-154376380D01*
X235557190Y-153328761D02*
X235319095Y-154043047D01*
X235938142Y-154043047D01*
X236747666Y-153376380D02*
X236557190Y-153376380D01*
X236461952Y-153424000D01*
X236414333Y-153471619D01*
X236319095Y-153614476D01*
X236271476Y-153804952D01*
X236271476Y-154185904D01*
X236319095Y-154281142D01*
X236366714Y-154328761D01*
X236461952Y-154376380D01*
X236652428Y-154376380D01*
X236747666Y-154328761D01*
X236795285Y-154281142D01*
X236842904Y-154185904D01*
X236842904Y-153947809D01*
X236795285Y-153852571D01*
X236747666Y-153804952D01*
X236652428Y-153757333D01*
X236461952Y-153757333D01*
X236366714Y-153804952D01*
X236319095Y-153852571D01*
X236271476Y-153947809D01*
%TO.C,K47*%
X243891714Y-135326380D02*
X243891714Y-134326380D01*
X244463142Y-135326380D02*
X244034571Y-134754952D01*
X244463142Y-134326380D02*
X243891714Y-134897809D01*
X245320285Y-134659714D02*
X245320285Y-135326380D01*
X245082190Y-134278761D02*
X244844095Y-134993047D01*
X245463142Y-134993047D01*
X245748857Y-134326380D02*
X246415523Y-134326380D01*
X245986952Y-135326380D01*
%TO.C,K48*%
X262941714Y-135326380D02*
X262941714Y-134326380D01*
X263513142Y-135326380D02*
X263084571Y-134754952D01*
X263513142Y-134326380D02*
X262941714Y-134897809D01*
X264370285Y-134659714D02*
X264370285Y-135326380D01*
X264132190Y-134278761D02*
X263894095Y-134993047D01*
X264513142Y-134993047D01*
X265036952Y-134754952D02*
X264941714Y-134707333D01*
X264894095Y-134659714D01*
X264846476Y-134564476D01*
X264846476Y-134516857D01*
X264894095Y-134421619D01*
X264941714Y-134374000D01*
X265036952Y-134326380D01*
X265227428Y-134326380D01*
X265322666Y-134374000D01*
X265370285Y-134421619D01*
X265417904Y-134516857D01*
X265417904Y-134564476D01*
X265370285Y-134659714D01*
X265322666Y-134707333D01*
X265227428Y-134754952D01*
X265036952Y-134754952D01*
X264941714Y-134802571D01*
X264894095Y-134850190D01*
X264846476Y-134945428D01*
X264846476Y-135135904D01*
X264894095Y-135231142D01*
X264941714Y-135278761D01*
X265036952Y-135326380D01*
X265227428Y-135326380D01*
X265322666Y-135278761D01*
X265370285Y-135231142D01*
X265417904Y-135135904D01*
X265417904Y-134945428D01*
X265370285Y-134850190D01*
X265322666Y-134802571D01*
X265227428Y-134754952D01*
%TO.C,K49*%
X281991714Y-135326380D02*
X281991714Y-134326380D01*
X282563142Y-135326380D02*
X282134571Y-134754952D01*
X282563142Y-134326380D02*
X281991714Y-134897809D01*
X283420285Y-134659714D02*
X283420285Y-135326380D01*
X283182190Y-134278761D02*
X282944095Y-134993047D01*
X283563142Y-134993047D01*
X283991714Y-135326380D02*
X284182190Y-135326380D01*
X284277428Y-135278761D01*
X284325047Y-135231142D01*
X284420285Y-135088285D01*
X284467904Y-134897809D01*
X284467904Y-134516857D01*
X284420285Y-134421619D01*
X284372666Y-134374000D01*
X284277428Y-134326380D01*
X284086952Y-134326380D01*
X283991714Y-134374000D01*
X283944095Y-134421619D01*
X283896476Y-134516857D01*
X283896476Y-134754952D01*
X283944095Y-134850190D01*
X283991714Y-134897809D01*
X284086952Y-134945428D01*
X284277428Y-134945428D01*
X284372666Y-134897809D01*
X284420285Y-134850190D01*
X284467904Y-134754952D01*
%TO.C,K50*%
X301041714Y-135326380D02*
X301041714Y-134326380D01*
X301613142Y-135326380D02*
X301184571Y-134754952D01*
X301613142Y-134326380D02*
X301041714Y-134897809D01*
X302517904Y-134326380D02*
X302041714Y-134326380D01*
X301994095Y-134802571D01*
X302041714Y-134754952D01*
X302136952Y-134707333D01*
X302375047Y-134707333D01*
X302470285Y-134754952D01*
X302517904Y-134802571D01*
X302565523Y-134897809D01*
X302565523Y-135135904D01*
X302517904Y-135231142D01*
X302470285Y-135278761D01*
X302375047Y-135326380D01*
X302136952Y-135326380D01*
X302041714Y-135278761D01*
X301994095Y-135231142D01*
X303184571Y-134326380D02*
X303279809Y-134326380D01*
X303375047Y-134374000D01*
X303422666Y-134421619D01*
X303470285Y-134516857D01*
X303517904Y-134707333D01*
X303517904Y-134945428D01*
X303470285Y-135135904D01*
X303422666Y-135231142D01*
X303375047Y-135278761D01*
X303279809Y-135326380D01*
X303184571Y-135326380D01*
X303089333Y-135278761D01*
X303041714Y-135231142D01*
X302994095Y-135135904D01*
X302946476Y-134945428D01*
X302946476Y-134707333D01*
X302994095Y-134516857D01*
X303041714Y-134421619D01*
X303089333Y-134374000D01*
X303184571Y-134326380D01*
%TO.C,K51*%
X320091714Y-135326380D02*
X320091714Y-134326380D01*
X320663142Y-135326380D02*
X320234571Y-134754952D01*
X320663142Y-134326380D02*
X320091714Y-134897809D01*
X321567904Y-134326380D02*
X321091714Y-134326380D01*
X321044095Y-134802571D01*
X321091714Y-134754952D01*
X321186952Y-134707333D01*
X321425047Y-134707333D01*
X321520285Y-134754952D01*
X321567904Y-134802571D01*
X321615523Y-134897809D01*
X321615523Y-135135904D01*
X321567904Y-135231142D01*
X321520285Y-135278761D01*
X321425047Y-135326380D01*
X321186952Y-135326380D01*
X321091714Y-135278761D01*
X321044095Y-135231142D01*
X322567904Y-135326380D02*
X321996476Y-135326380D01*
X322282190Y-135326380D02*
X322282190Y-134326380D01*
X322186952Y-134469238D01*
X322091714Y-134564476D01*
X321996476Y-134612095D01*
%TO.C,K52*%
X339141714Y-135326380D02*
X339141714Y-134326380D01*
X339713142Y-135326380D02*
X339284571Y-134754952D01*
X339713142Y-134326380D02*
X339141714Y-134897809D01*
X340617904Y-134326380D02*
X340141714Y-134326380D01*
X340094095Y-134802571D01*
X340141714Y-134754952D01*
X340236952Y-134707333D01*
X340475047Y-134707333D01*
X340570285Y-134754952D01*
X340617904Y-134802571D01*
X340665523Y-134897809D01*
X340665523Y-135135904D01*
X340617904Y-135231142D01*
X340570285Y-135278761D01*
X340475047Y-135326380D01*
X340236952Y-135326380D01*
X340141714Y-135278761D01*
X340094095Y-135231142D01*
X341046476Y-134421619D02*
X341094095Y-134374000D01*
X341189333Y-134326380D01*
X341427428Y-134326380D01*
X341522666Y-134374000D01*
X341570285Y-134421619D01*
X341617904Y-134516857D01*
X341617904Y-134612095D01*
X341570285Y-134754952D01*
X340998857Y-135326380D01*
X341617904Y-135326380D01*
%TO.C,K53*%
X124829214Y-54363880D02*
X124829214Y-53363880D01*
X125400642Y-54363880D02*
X124972071Y-53792452D01*
X125400642Y-53363880D02*
X124829214Y-53935309D01*
X126305404Y-53363880D02*
X125829214Y-53363880D01*
X125781595Y-53840071D01*
X125829214Y-53792452D01*
X125924452Y-53744833D01*
X126162547Y-53744833D01*
X126257785Y-53792452D01*
X126305404Y-53840071D01*
X126353023Y-53935309D01*
X126353023Y-54173404D01*
X126305404Y-54268642D01*
X126257785Y-54316261D01*
X126162547Y-54363880D01*
X125924452Y-54363880D01*
X125829214Y-54316261D01*
X125781595Y-54268642D01*
X126686357Y-53363880D02*
X127305404Y-53363880D01*
X126972071Y-53744833D01*
X127114928Y-53744833D01*
X127210166Y-53792452D01*
X127257785Y-53840071D01*
X127305404Y-53935309D01*
X127305404Y-54173404D01*
X127257785Y-54268642D01*
X127210166Y-54316261D01*
X127114928Y-54363880D01*
X126829214Y-54363880D01*
X126733976Y-54316261D01*
X126686357Y-54268642D01*
%TO.C,K54*%
X143879214Y-54363880D02*
X143879214Y-53363880D01*
X144450642Y-54363880D02*
X144022071Y-53792452D01*
X144450642Y-53363880D02*
X143879214Y-53935309D01*
X145355404Y-53363880D02*
X144879214Y-53363880D01*
X144831595Y-53840071D01*
X144879214Y-53792452D01*
X144974452Y-53744833D01*
X145212547Y-53744833D01*
X145307785Y-53792452D01*
X145355404Y-53840071D01*
X145403023Y-53935309D01*
X145403023Y-54173404D01*
X145355404Y-54268642D01*
X145307785Y-54316261D01*
X145212547Y-54363880D01*
X144974452Y-54363880D01*
X144879214Y-54316261D01*
X144831595Y-54268642D01*
X146260166Y-53697214D02*
X146260166Y-54363880D01*
X146022071Y-53316261D02*
X145783976Y-54030547D01*
X146403023Y-54030547D01*
%TO.C,K55*%
X162929214Y-54363880D02*
X162929214Y-53363880D01*
X163500642Y-54363880D02*
X163072071Y-53792452D01*
X163500642Y-53363880D02*
X162929214Y-53935309D01*
X164405404Y-53363880D02*
X163929214Y-53363880D01*
X163881595Y-53840071D01*
X163929214Y-53792452D01*
X164024452Y-53744833D01*
X164262547Y-53744833D01*
X164357785Y-53792452D01*
X164405404Y-53840071D01*
X164453023Y-53935309D01*
X164453023Y-54173404D01*
X164405404Y-54268642D01*
X164357785Y-54316261D01*
X164262547Y-54363880D01*
X164024452Y-54363880D01*
X163929214Y-54316261D01*
X163881595Y-54268642D01*
X165357785Y-53363880D02*
X164881595Y-53363880D01*
X164833976Y-53840071D01*
X164881595Y-53792452D01*
X164976833Y-53744833D01*
X165214928Y-53744833D01*
X165310166Y-53792452D01*
X165357785Y-53840071D01*
X165405404Y-53935309D01*
X165405404Y-54173404D01*
X165357785Y-54268642D01*
X165310166Y-54316261D01*
X165214928Y-54363880D01*
X164976833Y-54363880D01*
X164881595Y-54316261D01*
X164833976Y-54268642D01*
%TO.C,K56*%
X296279214Y-54363880D02*
X296279214Y-53363880D01*
X296850642Y-54363880D02*
X296422071Y-53792452D01*
X296850642Y-53363880D02*
X296279214Y-53935309D01*
X297755404Y-53363880D02*
X297279214Y-53363880D01*
X297231595Y-53840071D01*
X297279214Y-53792452D01*
X297374452Y-53744833D01*
X297612547Y-53744833D01*
X297707785Y-53792452D01*
X297755404Y-53840071D01*
X297803023Y-53935309D01*
X297803023Y-54173404D01*
X297755404Y-54268642D01*
X297707785Y-54316261D01*
X297612547Y-54363880D01*
X297374452Y-54363880D01*
X297279214Y-54316261D01*
X297231595Y-54268642D01*
X298660166Y-53363880D02*
X298469690Y-53363880D01*
X298374452Y-53411500D01*
X298326833Y-53459119D01*
X298231595Y-53601976D01*
X298183976Y-53792452D01*
X298183976Y-54173404D01*
X298231595Y-54268642D01*
X298279214Y-54316261D01*
X298374452Y-54363880D01*
X298564928Y-54363880D01*
X298660166Y-54316261D01*
X298707785Y-54268642D01*
X298755404Y-54173404D01*
X298755404Y-53935309D01*
X298707785Y-53840071D01*
X298660166Y-53792452D01*
X298564928Y-53744833D01*
X298374452Y-53744833D01*
X298279214Y-53792452D01*
X298231595Y-53840071D01*
X298183976Y-53935309D01*
%TO.C,K57*%
X315329214Y-54363880D02*
X315329214Y-53363880D01*
X315900642Y-54363880D02*
X315472071Y-53792452D01*
X315900642Y-53363880D02*
X315329214Y-53935309D01*
X316805404Y-53363880D02*
X316329214Y-53363880D01*
X316281595Y-53840071D01*
X316329214Y-53792452D01*
X316424452Y-53744833D01*
X316662547Y-53744833D01*
X316757785Y-53792452D01*
X316805404Y-53840071D01*
X316853023Y-53935309D01*
X316853023Y-54173404D01*
X316805404Y-54268642D01*
X316757785Y-54316261D01*
X316662547Y-54363880D01*
X316424452Y-54363880D01*
X316329214Y-54316261D01*
X316281595Y-54268642D01*
X317186357Y-53363880D02*
X317853023Y-53363880D01*
X317424452Y-54363880D01*
%TO.C,K58*%
X334379214Y-54363880D02*
X334379214Y-53363880D01*
X334950642Y-54363880D02*
X334522071Y-53792452D01*
X334950642Y-53363880D02*
X334379214Y-53935309D01*
X335855404Y-53363880D02*
X335379214Y-53363880D01*
X335331595Y-53840071D01*
X335379214Y-53792452D01*
X335474452Y-53744833D01*
X335712547Y-53744833D01*
X335807785Y-53792452D01*
X335855404Y-53840071D01*
X335903023Y-53935309D01*
X335903023Y-54173404D01*
X335855404Y-54268642D01*
X335807785Y-54316261D01*
X335712547Y-54363880D01*
X335474452Y-54363880D01*
X335379214Y-54316261D01*
X335331595Y-54268642D01*
X336474452Y-53792452D02*
X336379214Y-53744833D01*
X336331595Y-53697214D01*
X336283976Y-53601976D01*
X336283976Y-53554357D01*
X336331595Y-53459119D01*
X336379214Y-53411500D01*
X336474452Y-53363880D01*
X336664928Y-53363880D01*
X336760166Y-53411500D01*
X336807785Y-53459119D01*
X336855404Y-53554357D01*
X336855404Y-53601976D01*
X336807785Y-53697214D01*
X336760166Y-53744833D01*
X336664928Y-53792452D01*
X336474452Y-53792452D01*
X336379214Y-53840071D01*
X336331595Y-53887690D01*
X336283976Y-53982928D01*
X336283976Y-54173404D01*
X336331595Y-54268642D01*
X336379214Y-54316261D01*
X336474452Y-54363880D01*
X336664928Y-54363880D01*
X336760166Y-54316261D01*
X336807785Y-54268642D01*
X336855404Y-54173404D01*
X336855404Y-53982928D01*
X336807785Y-53887690D01*
X336760166Y-53840071D01*
X336664928Y-53792452D01*
%TO.C,K59*%
X353429214Y-54363880D02*
X353429214Y-53363880D01*
X354000642Y-54363880D02*
X353572071Y-53792452D01*
X354000642Y-53363880D02*
X353429214Y-53935309D01*
X354905404Y-53363880D02*
X354429214Y-53363880D01*
X354381595Y-53840071D01*
X354429214Y-53792452D01*
X354524452Y-53744833D01*
X354762547Y-53744833D01*
X354857785Y-53792452D01*
X354905404Y-53840071D01*
X354953023Y-53935309D01*
X354953023Y-54173404D01*
X354905404Y-54268642D01*
X354857785Y-54316261D01*
X354762547Y-54363880D01*
X354524452Y-54363880D01*
X354429214Y-54316261D01*
X354381595Y-54268642D01*
X355429214Y-54363880D02*
X355619690Y-54363880D01*
X355714928Y-54316261D01*
X355762547Y-54268642D01*
X355857785Y-54125785D01*
X355905404Y-53935309D01*
X355905404Y-53554357D01*
X355857785Y-53459119D01*
X355810166Y-53411500D01*
X355714928Y-53363880D01*
X355524452Y-53363880D01*
X355429214Y-53411500D01*
X355381595Y-53459119D01*
X355333976Y-53554357D01*
X355333976Y-53792452D01*
X355381595Y-53887690D01*
X355429214Y-53935309D01*
X355524452Y-53982928D01*
X355714928Y-53982928D01*
X355810166Y-53935309D01*
X355857785Y-53887690D01*
X355905404Y-53792452D01*
%TO.C,K60*%
X362954214Y-97226380D02*
X362954214Y-96226380D01*
X363525642Y-97226380D02*
X363097071Y-96654952D01*
X363525642Y-96226380D02*
X362954214Y-96797809D01*
X364382785Y-96226380D02*
X364192309Y-96226380D01*
X364097071Y-96274000D01*
X364049452Y-96321619D01*
X363954214Y-96464476D01*
X363906595Y-96654952D01*
X363906595Y-97035904D01*
X363954214Y-97131142D01*
X364001833Y-97178761D01*
X364097071Y-97226380D01*
X364287547Y-97226380D01*
X364382785Y-97178761D01*
X364430404Y-97131142D01*
X364478023Y-97035904D01*
X364478023Y-96797809D01*
X364430404Y-96702571D01*
X364382785Y-96654952D01*
X364287547Y-96607333D01*
X364097071Y-96607333D01*
X364001833Y-96654952D01*
X363954214Y-96702571D01*
X363906595Y-96797809D01*
X365097071Y-96226380D02*
X365192309Y-96226380D01*
X365287547Y-96274000D01*
X365335166Y-96321619D01*
X365382785Y-96416857D01*
X365430404Y-96607333D01*
X365430404Y-96845428D01*
X365382785Y-97035904D01*
X365335166Y-97131142D01*
X365287547Y-97178761D01*
X365192309Y-97226380D01*
X365097071Y-97226380D01*
X365001833Y-97178761D01*
X364954214Y-97131142D01*
X364906595Y-97035904D01*
X364858976Y-96845428D01*
X364858976Y-96607333D01*
X364906595Y-96416857D01*
X364954214Y-96321619D01*
X365001833Y-96274000D01*
X365097071Y-96226380D01*
%TD*%
M02*
